<svg xmlns="http://www.w3.org/2000/svg" style="display: none;">
    <symbol id="motorcycle" viewBox="0 0 444.266 444.266">
        <title>motorcycle</title>
        <path style="stroke:#000000;stroke-width:0;stroke-linecap:round;stroke-linejoin:round;" d="M380.152,230.217 c-21.82,0-41.119,10.967-52.705,27.67l-16.688-7.148v-10.46l52.274-21.69l13.421-30.941h6.168l30.923,36.726 c1.193,1.417,2.9,2.148,4.619,2.148c1.372,0,2.751-0.465,3.884-1.418c2.549-2.146,2.876-5.953,0.729-8.503L398.4,187.647h3.877 c3.334,0,6.034-2.701,6.034-6.034c0-3.333-2.7-6.034-6.034-6.034h-9.065l7.896-3.743c3.741-1.774,5.354-6.232,3.611-9.989 l-4.548-9.805c-1.226-2.642-3.862-4.342-6.774-4.369l-83.704-0.758c-0.023,0-0.046,0-0.068,0c-2.094,0-4.094,0.87-5.522,2.403 c-0.156,0.166-17.254,17.871-48.801,21.981c-2.063-3.831-5.451-9.225-10.448-14.584c-12.134-13.013-28.078-19.891-46.109-19.891 c-3.649,0-7.44,0.281-11.265,0.836c-0.02,0.003-0.041,0.006-0.061,0.01c-0.889,0.136-21.944,3.412-51.092,11.588 c-0.318,0.017-0.777,0.033-1.34,0.033c-3.344,0-11.462-0.596-14.625-6.119c-0.228-0.399-0.449-0.859-0.653-1.381l13.942-2.532 c3.893-0.708,6.477-4.438,5.77-8.331c-0.707-3.894-4.439-6.475-8.331-5.77l-11.234,2.04c1.719-7.095,5.623-16.795,13.383-30.019 c1.617-2.757,1.322-6.235-0.74-8.68c-1.461-1.734-3.588-2.681-5.768-2.681c-0.893,0-1.793,0.158-2.662,0.486 c-0.836,0.315-20.684,7.946-38.691,26.767c-11.527,12.048-23.764,30.391-27.604,56.062c1.022-1.991,2.291-3.927,3.888-5.731 c0,0,20.592,13.441,8.968,32.9H56.995c0.327,3.953,0.837,8.028,1.565,12.24c0.284,1.642,1.103,3.143,2.329,4.27l16.844,15.477 c-55.386-7.429-75.307,28.517-75.307,28.517c-4.154,5.53-2.064,11.491,4.639,8.326C2.56,273.897,0,283.818,0,294.332 c0,35.354,28.761,64.115,64.112,64.115c35.353,0,64.114-28.762,64.114-64.115c0-2.623-0.178-5.205-0.484-7.746h78.34l-30.925-23.052 c0,0-36.698,3.545-62.88-24.947c2.74-0.138,5.729-0.226,8.906-0.226c21.23,0,50.784,3.821,71.012,22.023 c0.261,0.234,0.538,0.451,0.829,0.647l69.392,46.77c1.283,0.865,2.752,1.288,4.213,1.288c1.947,0,3.879-0.751,5.336-2.21 l27.959-27.959l16.668,7.139c-0.352,2.711-0.552,5.469-0.552,8.273c0,35.354,28.761,64.115,64.112,64.115 c35.353,0,64.113-28.762,64.113-64.115S415.505,230.217,380.152,230.217z M310.76,214.672l47.245-22.4l-6.386,14.719l-40.859,16.955 V214.672z M64.112,328.276c-18.715,0-33.94-15.227-33.94-33.943s15.226-33.943,33.94-33.943c0.79,0,1.571,0.037,2.348,0.09 l-14.041,28.948l27.146,13.168l12.981-26.765c3.479,5.327,5.508,11.68,5.508,18.502C98.055,313.049,82.828,328.276,64.112,328.276z M380.152,328.276c-17.172,0-31.397-12.823-33.627-29.397l25.678,10.999l11.88-27.734l-27.806-11.909 c6.137-6.082,14.574-9.846,23.875-9.846c18.715,0,33.942,15.227,33.942,33.943S398.867,328.276,380.152,328.276z"/>
    </symbol>
    <symbol id="review" viewBox="0 0 475 475.88431">
    <title>review</title>
        <path d="m473.738281 328.542969c-3.132812-9.9375-12.398437-16.65625-22.816406-16.542969h-10.480469v-256c0-4.417969-3.582031-8-8-8h-112v-40c0-4.417969-3.582031-8-8-8h-304c-4.417968 0-8 3.582031-8 8v416c0 4.417969 3.582032 8 8 8h264.320313l-4 12.335938c-3.242188 9.898437.269531 20.753906 8.695312 26.878906 8.421875 6.125 19.832031 6.117187 28.25-.015625l41.933594-30.542969c2.832031-2.070312 6.679687-2.070312 9.511719 0l42.011718 30.558594c8.375 6.226562 19.84375 6.226562 28.222657 0 8.519531-6.046875 12.066406-16.96875 8.71875-26.871094l-16.0625-49.488281c-1.054688-3.277344.132812-6.863281 2.933593-8.863281l42.089844-30.558594c8.5-6.074219 12.019532-16.996094 8.671875-26.890625zm-49.296875-264.542969v248h-25.519531c-.839844-.003906-1.675781-.140625-2.472656-.40625-2.410157-.8125-4.300781-2.699219-5.117188-5.105469l-16.082031-49.449219c-3.238281-9.847656-12.433594-16.503906-22.800781-16.503906-10.367188 0-19.5625 6.65625-22.800781 16.503906l-9.207032 28.265626v-77.304688h64c4.417969 0 8-3.582031 8-8s-3.582031-8-8-8h-64v-32h64c4.417969 0 8-3.582031 8-8s-3.582031-8-8-8h-64v-32h64c4.417969 0 8-3.582031 8-8s-3.582031-8-8-8h-64v-32zm-408 352v-400h288v296h-50.480468c-10.410157-.027344-19.652344 6.667969-22.878907 16.566406-3.222656 9.902344.304688 20.753906 8.734375 26.867188l42.074219 30.550781c2.820313 2.007813 4.011719 5.609375 2.945313 8.902344l-6.867188 21.113281zm439.199219-73.503906-42.078125 30.558594c-8.429688 6.074218-11.964844 16.902343-8.738281 26.777343l16.082031 49.441407c1.097656 3.300781-.066406 6.9375-2.882812 8.988281-2.8125 2.050781-6.628907 2.042969-9.4375-.015625l-42.039063-30.582032c-8.441406-6.074218-19.824219-6.074218-28.265625 0l-41.992188 30.558594c-2.804687 2.0625-6.625 2.070313-9.441406.023438-2.816406-2.050782-3.984375-5.683594-2.886718-8.988282l16.074218-49.417968c3.238282-9.890625-.300781-20.738282-8.746094-26.816406l-42.046874-30.519532c-2.835938-2.03125-4.027344-5.664062-2.949219-8.980468 1.078125-3.316407 4.183593-5.550782 7.667969-5.523438h52c3.332031.027344 6.628906-.6875 9.648437-2.097656l.152344-.085938.144531-.046875c.113281-.050781.191406-.144531.304688-.203125 5.960937-2.769531 10.507812-7.886718 12.558593-14.132812l16.082031-49.433594c1.078126-3.28125 4.144532-5.503906 7.597657-5.503906 3.457031 0 6.523437 2.222656 7.601562 5.503906l16.085938 49.472656c3.230469 9.851563 12.417969 16.515625 22.785156 16.527344h52c3.484375-.027344 6.585937 2.207031 7.664063 5.519531 1.082031 3.3125-.105469 6.941407-2.9375 8.976563zm0 0"/><path d="m72.441406 80h176c4.417969 0 8-3.582031 8-8s-3.582031-8-8-8h-176c-4.417968 0-8 3.582031-8 8s3.582032 8 8 8zm0 0"/><path d="m72.441406 144h176c4.417969 0 8-3.582031 8-8s-3.582031-8-8-8h-176c-4.417968 0-8 3.582031-8 8s3.582032 8 8 8zm0 0"/><path d="m72.441406 208h176c4.417969 0 8-3.582031 8-8s-3.582031-8-8-8h-176c-4.417968 0-8 3.582031-8 8s3.582032 8 8 8zm0 0"/><path d="m256.441406 264c0-4.417969-3.582031-8-8-8h-176c-4.417968 0-8 3.582031-8 8s3.582032 8 8 8h176c4.417969 0 8-3.582031 8-8zm0 0"/>
    </symbol>
    <symbol id="map-pin-empty" viewBox="0 0 61.168 61.168">
        <title>map-pin-empty</title>
        <path d="M30.938,26.584c3.859,0,7-3.141,7-7s-3.141-7-7-7s-7,3.141-7,7S27.078,26.584,30.938,26.584z M30.938,14.584 c2.757,0,5,2.243,5,5s-2.243,5-5,5s-5-2.243-5-5S28.181,14.584,30.938,14.584z"/><path d="M50.216,37.584h-7.161l3.047-4.4c5.755-7.671,4.922-20.28-1.781-26.982c-3.621-3.622-8.437-5.617-13.56-5.617 c-5.122,0-9.938,1.995-13.56,5.617c-6.703,6.702-7.536,19.312-1.804,26.952l3.068,4.431h-7.513L0,60.584h61.168L50.216,37.584z M17.02,31.984c-5.199-6.933-4.454-18.32,1.596-24.369c3.244-3.244,7.558-5.031,12.146-5.031s8.901,1.787,12.146,5.031 c6.05,6.049,6.795,17.437,1.573,24.399L30.761,51.827l-9.863-14.243h0L17.02,31.984z M12.216,39.584h7.634l10.911,15.757 l10.91-15.757h7.281l9.048,19H3.168L12.216,39.584z"/>
    </symbol>
    <symbol id="money-bag" viewBox="0 0 481 481">
        <title>money-bag</title>
        <path d="M256.7,301.9h-27.5c-10,0-18.1-8.1-18.1-18.1s8.1-18.1,18.1-18.1h48.4c6.6,0,12-5.4,12-12c0-6.6-5.4-12-12-12h-22.7V225 c0-6.6-5.4-12-12-12s-12,5.4-12,12v16.7h-1.7c-23.2,0-42.1,18.9-42.1,42.1s18.9,42.1,42.1,42.1h27.5c10,0,18.1,8.1,18.1,18.1 s-8.1,18.1-18.1,18.1h-49.3c-6.6,0-12,5.4-12,12c0,6.6,5.4,12,12,12H231v17.1c0,6.6,5.4,12,12,12c6.6,0,12-5.4,12-12v-17.1h2 c0.1,0,0.2,0,0.3,0c23-0.3,41.5-19.1,41.5-42.1C298.8,320.8,279.9,301.9,256.7,301.9z"/><path d="M423.3,274.7c-12.6-29-30-57.1-52-83.4c-26.6-32-53.1-53.4-66.6-63.3l51-94.6c2.5-4.7,1.7-10.5-2.2-14.2 C340.3,6.3,326.3,0,310.7,0c-14.3,0-27.4,5.4-38.8,10.2c-9,3.7-17.5,7.3-24.4,7.3c-2.1,0-3.9-0.3-5.7-1C218,7.8,199.7,2.4,182,2.4 c-22.4,0-41.5,9-60.2,28.2c-3.9,4-4.5,10.3-1.4,15l55,83.1c-13.6,10.1-39.6,31.3-65.7,62.6c-21.9,26.3-39.4,54.4-52,83.4 c-15.8,36.5-23.8,74.6-23.8,113.2c0,51.3,41.8,93.1,93.1,93.1h227c51.3,0,93.1-41.8,93.1-93.1 C447.1,349.3,439.1,311.2,423.3,274.7z M146,40.6c11.6-10,22.7-14.4,36-14.4c14.2,0,30.2,4.8,51.5,12.7c4.4,1.6,9.1,2.4,13.9,2.4 c11.7,0,22.9-4.6,33.6-9.1c10.3-4.3,20.1-8.4,29.6-8.4c4.6,0,11.1,0.8,19.3,6.6l-48,89.2h-83.6L146,40.6z M354,457H127 c-38.1,0-69.1-31-69.1-69.1c0-64.1,23.5-124.9,69.7-180.7c29.2-35.3,58.9-57.2,67.9-63.6h89.8c9.1,6.3,38.7,28.3,67.9,63.6 c46.3,55.8,69.7,116.5,69.7,180.7C423.1,426,392.1,457,354,457z"/>
    </symbol>
    <symbol id="money-bag-2" viewBox="0 0 424.98 424.98">
        <title>money-bag-2</title>
        <g> <path d="M241.395,282.304c-1.587-1.738-3.595-3.038-5.67-4.121c-4.518-2.356-9.459-3.785-14.365-5.075v38.016 c7.963-0.9,17.105-3.79,21.286-11.224l0,0c1.996-3.551,2.393-7.914,1.58-11.867C243.785,285.891,242.874,283.925,241.395,282.304 z"/> </g><g> <path d="M242.604,299.973c0.016-0.027,0.025-0.044,0.042-0.073l0,0C242.632,299.924,242.618,299.948,242.604,299.973z"/> </g><g> <path d="M184.009,221.532c-1.369,1.999-2.228,4.27-2.465,6.684c-0.237,2.419-0.104,5.11,0.815,7.387 c0.875,2.17,2.708,3.772,4.6,5.062c2.123,1.444,4.458,2.572,6.836,3.528c1.995,0.803,4.239,1.571,6.658,2.313v-34.4 C194.342,213.41,187.665,216.194,184.009,221.532z"/> </g><g> <path d="M242.804,299.619c-0.05,0.089-0.104,0.182-0.157,0.28l0,0C242.709,299.785,242.758,299.701,242.804,299.619z"/> </g><g> <path d="M243.004,299.263C243.017,299.239,243.019,299.237,243.004,299.263L243.004,299.263z"/> </g><g> <path d="M234.753,92.469c32.329-27.158,53.931-88.341,40.637-91.017c-17.664-3.557-56.022,12.04-74.562,14.788 c-26.296,3.175-54.936-28.515-71.012-10.851c-13.071,14.362,9.371,66.592,44.482,89.346 C69.546,146.219-77.69,404.673,179.171,423.426C534.582,449.375,356.615,142.639,234.753,92.469z M265.276,296.298 c-1.093,10.076-6.433,19.188-14.415,25.374c-8.428,6.532-18.999,9.57-29.502,10.421v11.133c0,2.979-1.301,5.86-3.531,7.832 c-3.065,2.712-7.569,3.381-11.289,1.667c-3.673-1.69-6.086-5.457-6.086-9.499v-12.168c-1.801-0.342-3.589-0.749-5.356-1.234 c-9.816-2.697-18.921-7.954-25.572-15.732c-3.313-3.877-6.014-8.276-7.882-13.025c-0.488-1.241-0.923-2.505-1.304-3.783 c-0.345-1.157-0.701-2.333-0.824-3.539c-0.207-2.023,0.194-4.087,1.137-5.889c1.938-3.707,6.022-5.946,10.192-5.574 c4.104,0.364,7.701,3.212,8.993,7.124c0.398,1.205,0.668,2.44,1.115,3.632c0.443,1.184,0.978,2.335,1.607,3.431 c1.242,2.158,2.798,4.148,4.59,5.875c3.694,3.559,8.399,5.872,13.304,7.248v-41.362c-9.591-2.483-19.491-5.69-27.411-11.848 c-3.849-2.994-7.115-6.714-9.254-11.117c-2.257-4.647-3.192-9.824-3.23-14.966c-0.039-5.221,0.953-10.396,3.131-15.153 c2.04-4.454,4.977-8.453,8.578-11.768c7.7-7.087,17.928-11.04,28.187-12.492v-0.91v-10.647c0-2.978,1.301-5.86,3.531-7.832 c3.066-2.711,7.568-3.381,11.289-1.667c3.672,1.691,6.086,5.457,6.086,9.499v10.647v0.847c1.367,0.172,2.73,0.378,4.086,0.624 c10.074,1.823,19.927,5.983,27.294,13.246c3.49,3.44,6.347,7.539,8.356,12.009c0.561,1.247,1.052,2.523,1.477,3.824 c0.396,1.213,0.794,2.462,0.983,3.728c0.302,2.021-0.006,4.109-0.871,5.958c-1.772,3.788-5.746,6.2-9.927,6.021 c-4.108-0.179-7.83-2.854-9.301-6.694c-0.438-1.142-0.657-2.351-1.104-3.49c-0.451-1.153-1.035-2.253-1.708-3.292 c-1.308-2.02-3.003-3.752-4.938-5.179c-4.19-3.094-9.272-4.706-14.35-5.607v39.582c6.035,1.445,12.075,3.021,17.857,5.301 c8.739,3.446,17.02,8.73,21.79,17.062c-0.74-1.298-1.46-2.563,0.025,0.043c1.458,2.56,0.762,1.34,0.03,0.057 C264.854,280.704,266.101,288.701,265.276,296.298z"/> </g><g> <path d="M242.493,300.169c-0.061,0.109-0.114,0.205-0.156,0.278C242.373,300.384,242.427,300.289,242.493,300.169z"/> </g>
    </symbol>
    <symbol id="review-1" viewBox="0 -19 512 512">
        <title>review-1</title>
        <path d="m479.460938 192.980469h-48.191407v79.925781c0 40.03125-32.566406 72.597656-72.597656 72.597656h-116.992187v29.691406c0 17.941407 14.597656 32.539063 32.539062 32.539063h103.550781l49.371094 59.847656c2.957031 3.582031 7.324219 5.585938 11.851563 5.585938 1.125 0 2.261718-.125 3.390624-.378907 5.652344-1.277343 10.105469-5.632812 11.511719-11.257812l13.453125-53.796875h12.113282c17.941406 0 32.539062-14.59375 32.539062-32.539063v-149.675781c0-17.945312-14.597656-32.539062-32.539062-32.539062zm0 0"/><path d="m358.671875 0h-316.796875c-23.089844 0-41.875 18.785156-41.875 41.875v231.03125c0 23.089844 18.785156 41.871094 41.875 41.871094h30.785156l22.34375 89.359375c1.402344 5.628906 5.855469 9.980469 11.511719 11.261719 1.128906.253906 2.261719.378906 3.390625.378906 4.527344-.003906 8.894531-2.007813 11.847656-5.589844l78.714844-95.410156h158.203125c23.089844 0 41.875-18.78125 41.875-41.871094v-231.03125c0-23.089844-18.785156-41.875-41.875-41.875zm-68.179687 146.765625-33.964844 33.109375 8.019531 46.746094c.988281 5.765625-1.382813 11.589844-6.113281 15.027344-2.675782 1.945312-5.84375 2.933593-9.03125 2.933593-2.445313 0-4.898438-.582031-7.148438-1.765625l-41.980468-22.070312-41.984376 22.070312c-5.175781 2.722656-11.445312 2.269532-16.179687-1.167968-4.730469-3.4375-7.097656-9.261719-6.109375-15.027344l8.019531-46.75-33.96875-33.105469c-4.183593-4.082031-5.691406-10.1875-3.886719-15.746094 1.808594-5.5625 6.617188-9.617187 12.402344-10.457031l46.9375-6.820312 20.992188-42.535157c2.589844-5.242187 7.929687-8.5625 13.777344-8.5625 5.847656 0 11.1875 3.320313 13.773437 8.5625l20.992187 42.535157 46.9375 6.820312c5.789063.839844 10.597657 4.894531 12.402344 10.457031 1.808594 5.5625.300782 11.664063-3.886718 15.746094zm0 0"/><path d="m211.0625 134.582031-10.789062-21.859375-10.789063 21.859375c-2.238281 4.535157-6.5625 7.675781-11.566406 8.40625l-24.128907 3.503907 17.457032 17.019531c3.621094 3.527343 5.273437 8.613281 4.417968 13.597656l-4.121093 24.027344 21.582031-11.34375c4.472656-2.351563 9.820312-2.351563 14.296875 0l21.578125 11.34375-4.121094-24.027344c-.855468-4.984375.796875-10.070313 4.417969-13.597656l17.457031-17.019531-24.125-3.503907c-5.003906-.730469-9.328125-3.871093-11.566406-8.40625zm0 0"/>
    </symbol>
    <symbol id="review-2" viewBox="1 -19 511.99898 511">
        <title>review-2</title><path d="m479.460938 193.480469h-78.914063v-151.105469c0-23.089844-18.785156-41.875-41.875-41.875h-316.796875c-23.089844 0-41.875 18.785156-41.875 41.875v231.027344c0 23.089844 18.785156 41.875 41.875 41.875h30.785156l22.34375 89.359375c1.402344 5.628906 5.855469 9.980469 11.511719 11.261719 1.128906.253906 2.261719.378906 3.390625.378906 4.527344-.003906 8.894531-2.007813 11.847656-5.589844l78.714844-95.410156h41.210938v60.417968c0 17.941407 14.59375 32.539063 32.539062 32.539063h103.546875l49.375 59.847656c2.957031 3.582031 7.324219 5.585938 11.851563 5.585938 1.125 0 2.261718-.125 3.386718-.378907 5.65625-1.277343 10.109375-5.632812 11.515625-11.257812l13.449219-53.796875h12.117188c17.941406 0 32.539062-14.597656 32.539062-32.539063v-149.675781c0-17.945312-14.597656-32.539062-32.539062-32.539062zm-286.234376 91.074219c-4.585937 0-8.929687 2.046874-11.847656 5.585937l-63.953125 77.515625-17.867187-71.464844c-1.707032-6.839844-7.851563-11.636718-14.902344-11.636718h-42.78125c-6.148438 0-11.148438-5.003907-11.148438-11.152344v-231.027344c0-6.148438 5-11.152344 11.148438-11.152344h316.796875c6.148437 0 11.148437 5.003906 11.148437 11.152344v231.027344c0 6.148437-5 11.152344-11.148437 11.152344zm288.046876 91.140624c0 1-.8125 1.8125-1.8125 1.8125h-24.109376c-7.050781 0-13.195312 4.800782-14.902343 11.636719l-8.980469 35.902344-34.609375-41.953125c-2.917969-3.535156-7.265625-5.585938-11.847656-5.585938h-110.792969c-1 0-1.816406-.8125-1.816406-1.8125v-60.417968h86.269531c23.089844 0 41.871094-18.785156 41.871094-41.875v-49.199219h78.917969c1 0 1.8125.8125 1.8125 1.816406zm0 0"/><path d="m249.402344 245.082031c-2.445313 0-4.898438-.582031-7.148438-1.765625l-41.980468-22.070312-41.984376 22.070312c-5.175781 2.722656-11.445312 2.269532-16.179687-1.171875-4.730469-3.433593-7.097656-9.261719-6.109375-15.023437l8.019531-46.75-33.96875-33.105469c-4.183593-4.082031-5.691406-10.1875-3.886719-15.75 1.808594-5.558594 6.617188-9.613281 12.402344-10.453125l46.9375-6.820312 20.992188-42.535157c2.589844-5.242187 7.929687-8.5625 13.777344-8.5625 5.847656 0 11.1875 3.320313 13.773437 8.5625l20.992187 42.535157 46.9375 6.820312c5.789063.839844 10.597657 4.894531 12.402344 10.453125 1.808594 5.5625.300782 11.667969-3.886718 15.75l-33.964844 33.105469 8.015625 46.75c.988281 5.761718-1.378907 11.589844-6.109375 15.023437-2.675782 1.949219-5.84375 2.9375-9.03125 2.9375zm-95.613282-98.089843 17.457032 17.019531c3.621094 3.527343 5.273437 8.613281 4.417968 13.597656l-4.121093 24.027344 21.582031-11.34375c4.472656-2.355469 9.820312-2.355469 14.296875 0l21.578125 11.34375-4.121094-24.027344c-.855468-4.984375.796875-10.070313 4.417969-13.597656l17.457031-17.019531-24.125-3.507813c-5.003906-.726563-9.332031-3.867187-11.566406-8.402344l-10.789062-21.863281-10.789063 21.863281c-2.242187 4.535157-6.566406 7.675781-11.570313 8.402344zm0 0"/>
    </symbol>
    <symbol id="review-3" viewBox="0 0 512 512">
        <title>review-3</title>
        <path d="m211 286c0 24.8125 20.1875 45 45 45s45-20.1875 45-45-20.1875-45-45-45-45 20.1875-45 45zm0 0"/><path d="m256 361c-49.628906 0-90 40.371094-90 90v61h180v-61c0-49.628906-40.371094-90-90-90zm0 0"/><path d="m136 316c0-24.8125-20.1875-45-45-45s-45 20.1875-45 45 20.1875 45 45 45 45-20.1875 45-45zm0 0"/><path d="m466 316c0-24.8125-20.1875-45-45-45s-45 20.1875-45 45 20.1875 45 45 45 45-20.1875 45-45zm0 0"/><path d="m76 0-22.820312 53.800781-53.179688 7.5 38.355469 36.433594-8.820313 53.265625 46.464844-24.285156 46.464844 24.285156-8.820313-53.265625 37.355469-36.433594-51.621094-7.5zm0 0"/><path d="m279.378906 53.800781-23.378906-53.800781-22.820312 53.800781-52.179688 7.5 37.355469 36.433594-8.820313 53.265625 46.464844-24.285156 46.464844 24.285156-8.820313-53.265625 37.355469-36.433594zm0 0"/><path d="m436 0-22.820312 53.800781-52.179688 7.5 37.355469 36.433594-8.820313 53.265625 46.464844-24.285156 46.464844 24.285156-8.820313-53.265625 38.355469-36.433594-52.621094-7.5zm0 0"/><path d="m421 391c-19.9375 0-38.183594 6.691406-53.097656 17.660156 5.019531 13.214844 8.097656 27.386719 8.097656 42.339844v61h136v-31c0-49.707031-41.292969-90-91-90zm0 0"/><path d="m0 481v31h136v-61c0-14.953125 3.078125-29.125 8.097656-42.339844-14.914062-10.96875-33.160156-17.660156-53.097656-17.660156-49.707031 0-91 40.292969-91 90zm0 0"/>
    </symbol>
    <symbol id="map-pin-full" viewBox="0 0 60 60">
        <title>map-pin-full</title>
        <path d="M42.117,43.007c-0.55-0.067-1.046,0.327-1.11,0.876s0.328,1.046,0.876,1.11C52.399,46.231,58,49.567,58,51.5 c0,2.714-10.652,6.5-28,6.5S2,54.214,2,51.5c0-1.933,5.601-5.269,16.117-6.507c0.548-0.064,0.94-0.562,0.876-1.11 c-0.065-0.549-0.561-0.945-1.11-0.876C7.354,44.247,0,47.739,0,51.5C0,55.724,10.305,60,30,60s30-4.276,30-8.5 C60,47.739,52.646,44.247,42.117,43.007z"/><path d="M29.823,54.757L45.164,32.6c5.754-7.671,4.922-20.28-1.781-26.982C39.761,1.995,34.945,0,29.823,0 s-9.938,1.995-13.56,5.617c-6.703,6.702-7.535,19.311-1.804,26.952L29.823,54.757z M30,12c3.86,0,7,3.141,7,7s-3.14,7-7,7 s-7-3.141-7-7S26.14,12,30,12z"/>
    </symbol>
    <symbol id="currency" viewBox="0 0 512 512">
        <title>currency</title>
        <path d="M362.794,370.325c-8.931-6.055-19.95-9.096-30.604-12.036c-2.325-0.642-4.642-1.281-6.912-1.948 c-13.034-3.832-21.392-11.394-22.359-20.232c-0.782-7.148,3.521-14.043,11.506-18.443c1.688-0.929,3.567-1.623,5.579-2.114 v15.866c0,5.89,4.775,10.667,10.667,10.667c5.89,0,10.667-4.777,10.667-10.667v-15.086c6.227,1.535,12.293,4.01,17.261,7.014 c5.04,3.052,11.598,1.439,14.648-3.602c3.05-5.04,1.438-11.598-3.602-14.649c-7.893-4.778-17.888-8.703-28.306-10.594v-7.668 c0-5.89-4.777-10.667-10.667-10.667c-5.891,0-10.667,4.777-10.667,10.667v7.022c-5.596,0.789-10.979,2.429-15.873,5.125 c-15.552,8.57-24.142,23.684-22.419,39.448c1.934,17.691,15.971,32.038,37.55,38.38c0.243,0.071,0.496,0.141,0.741,0.212v50.224 c-8.827-1.471-16.131-5.21-18.471-9.715c-2.713-5.229-9.15-7.268-14.379-4.556c-5.229,2.713-7.269,9.151-4.557,14.381 c6.487,12.504,21.537,19.548,37.406,21.346v11.135c0,5.89,4.775,10.667,10.667,10.667c5.89,0,10.667-4.777,10.667-10.667V447.93 c2.212-0.429,4.371-0.962,6.442-1.615c16.731-5.273,29.176-19.83,31.701-37.085C381.78,393.515,375.542,378.971,362.794,370.325z M358.371,406.142c-1.348,9.214-8.022,16.996-17.004,19.826c-0.009,0.003-0.019,0.005-0.029,0.01v-42.602 c3.587,1.325,6.848,2.821,9.484,4.607C359.202,393.667,358.894,402.575,358.371,406.142z"/><path d="M330.671,234.668c-3.589,0-7.15,0.138-10.671,0.406V50.667c0-11.136-7.804-26.849-44.975-38.466 C249.847,4.334,216.573,0,181.333,0S112.82,4.334,87.641,12.201c-37.173,11.617-44.976,27.33-44.976,38.466v322.669 c0,11.135,7.803,26.848,44.976,38.464c25.179,7.868,58.453,12.202,93.692,12.202c6.717,0,13.434-0.169,20.065-0.489 C221.55,475.243,271.895,512,330.67,512c76.461,0,138.666-62.204,138.666-138.664 C469.337,296.874,407.132,234.668,330.671,234.668z M94.004,32.563c23.175-7.242,54.188-11.23,87.329-11.23 c33.139,0,64.154,3.988,87.329,11.23c24.492,7.654,30.005,15.84,30.005,18.104c0,2.265-5.513,10.45-30.005,18.105 c-23.175,7.241-54.188,11.229-87.329,11.229s-64.155-3.988-87.329-11.23C69.51,61.117,63.998,52.932,63.998,50.667 C63.998,48.404,69.51,40.218,94.004,32.563z M63.998,79.256c6.111,3.471,13.849,6.817,23.643,9.877 c25.179,7.868,58.453,12.201,93.692,12.201S249.847,97,275.025,89.134c9.794-3.06,17.531-6.406,23.642-9.877v25.191 c0,2.263-5.513,10.449-30.005,18.104c-23.176,7.241-54.188,11.229-87.329,11.229c-15.38,0-30.396-0.866-44.631-2.572 c-5.846-0.707-11.16,3.472-11.86,9.321c-0.701,5.849,3.472,11.16,9.321,11.86c15.074,1.807,30.944,2.724,47.171,2.724 c35.24,0,68.514-4.334,93.691-12.201c9.794-3.06,17.531-6.406,23.642-9.876v78.965c0,2.265-5.513,10.45-30.005,18.105 c-23.175,7.242-54.188,11.229-87.329,11.229c-33.141,0-64.156-3.987-87.329-11.229c-24.494-7.654-30.007-15.84-30.007-18.105 v-25.187c6.111,3.47,13.849,6.817,23.643,9.877c25.179,7.868,58.453,12.201,93.692,12.201c20.994,0,41.099-1.507,59.757-4.48 c5.819-0.926,9.784-6.394,8.857-12.211c-0.927-5.819-6.409-9.781-12.212-8.856c-17.305,2.756-36.808,4.213-56.402,4.213 c-33.139,0-64.155-3.988-87.329-11.23c-24.494-7.654-30.007-15.839-30.007-18.103V79.256z M181.333,402.669 c-33.139,0-64.155-3.988-87.329-11.23c-24.494-7.654-30.007-15.839-30.007-18.103v-25.19c6.111,3.47,13.849,6.817,23.643,9.877 c25.178,7.868,58.453,12.202,93.692,12.202c3.569,0,7.144-0.05,10.706-0.141c-0.025,1.084-0.039,2.166-0.039,3.252 c0,1.214,0.017,2.422,0.048,3.629c0.01,0.375,0.029,0.752,0.043,1.129c0.028,0.83,0.055,1.661,0.098,2.486 c0.023,0.455,0.059,0.91,0.086,1.363c0.046,0.743,0.09,1.489,0.146,2.229c0.039,0.502,0.09,1.003,0.134,1.503 c0.062,0.69,0.119,1.381,0.191,2.068c0.057,0.542,0.124,1.083,0.187,1.622c0.074,0.639,0.145,1.279,0.227,1.916 c0.076,0.59,0.163,1.179,0.247,1.766c0.082,0.577,0.162,1.156,0.252,1.731c0.101,0.644,0.211,1.286,0.321,1.929 c0.086,0.51,0.172,1.021,0.263,1.53c0.128,0.703,0.267,1.404,0.405,2.106c0.085,0.433,0.17,0.867,0.259,1.298 c0.053,0.261,0.101,0.526,0.158,0.789C190.511,402.589,185.922,402.669,181.333,402.669z M204.277,316.301 c-0.004,0.011-0.01,0.019-0.014,0.03c-0.375,0.833-0.74,1.669-1.1,2.51c-0.102,0.239-0.208,0.476-0.308,0.716 c-0.166,0.394-0.324,0.79-0.486,1.186c-3.658,8.89-6.424,18.237-8.172,27.934c-4.273,0.138-8.573,0.215-12.865,0.215 c-33.141,0-64.155-3.988-87.329-11.23c-24.494-7.654-30.007-15.84-30.007-18.104v-78.968h0.001 c6.111,3.47,13.849,6.817,23.643,9.877c25.178,7.867,58.452,12.201,93.692,12.201c28.082,0,54.901-2.759,77.383-7.858 c-12.521,7.61-23.87,17.207-33.529,28.512c-2.79,3.267-5.412,6.653-7.872,10.142c-11.6,1.092-23.705,1.649-35.982,1.649 c-15.38,0-30.396-0.866-44.631-2.572c-5.846-0.702-11.16,3.471-11.86,9.321c-0.701,5.849,3.472,11.16,9.321,11.86 c15.074,1.807,30.944,2.724,47.171,2.724c7.819,0,15.561-0.241,23.183-0.664C204.437,315.956,204.356,316.128,204.277,316.301z M330.671,490.667c-52.551,0-97.143-34.724-112.037-82.43c-0.181-0.58-0.35-1.164-0.522-1.746 c-0.288-0.976-0.563-1.957-0.827-2.943c-0.176-0.662-0.347-1.326-0.512-1.99c-0.135-0.548-0.275-1.094-0.403-1.647 c-0.259-1.12-0.501-2.244-0.729-3.373c-0.093-0.461-0.179-0.924-0.267-1.387c-0.185-0.981-0.358-1.965-0.517-2.95 c-0.05-0.308-0.106-0.614-0.153-0.923c-0.194-1.255-0.362-2.515-0.514-3.777c-0.044-0.367-0.085-0.734-0.126-1.101 c-0.135-1.224-0.258-2.449-0.355-3.677c-0.009-0.108-0.019-0.214-0.028-0.322c-0.102-1.329-0.175-2.662-0.232-3.998 c-0.015-0.335-0.027-0.67-0.038-1.005c-0.047-1.352-0.078-2.705-0.078-4.062c0-1.627,0.044-3.244,0.109-4.855 c0.011-0.263,0.018-0.529,0.03-0.792c0.068-1.453,0.17-2.899,0.29-4.338c0.038-0.453,0.077-0.906,0.121-1.357 c0.122-1.278,0.266-2.55,0.427-3.815c0.089-0.685,0.188-1.365,0.288-2.046c0.091-0.625,0.193-1.247,0.293-1.869 c0.249-1.514,0.517-3.02,0.825-4.513c0.003-0.018,0.008-0.036,0.012-0.054c8.794-42.823,40.993-77.207,82.587-89.156 c0.171-0.048,0.339-0.098,0.509-0.146c0.962-0.271,1.932-0.53,2.905-0.779c1.11-0.279,2.227-0.548,3.352-0.797 c0.429-0.096,0.861-0.191,1.294-0.283c1.471-0.308,2.953-0.595,4.446-0.849c6.454-1.104,13.086-1.688,19.852-1.688 c64.696,0,117.332,52.637,117.332,117.335C448.003,438.032,395.367,490.667,330.671,490.667z"/><path d="M96.347,145.404c1.653,0.436,3.345,0.86,5.068,1.269c0.83,0.198,1.661,0.291,2.478,0.291 c4.826,0,9.202-3.299,10.368-8.201c1.363-5.73-2.177-11.482-7.908-12.845c-1.552-0.369-3.075-0.75-4.564-1.142 c-5.701-1.504-11.534,1.897-13.035,7.593C87.25,138.066,90.65,143.902,96.347,145.404z"/><path d="M269.65,197.847c1.008,0,2.035-0.145,3.05-0.447c2.098-0.625,4.212-1.298,6.284-2c5.579-1.891,8.569-7.948,6.677-13.528 c-1.891-5.579-7.948-8.568-13.528-6.677c-1.821,0.618-3.679,1.21-5.525,1.758c-5.646,1.682-8.859,7.622-7.178,13.268 C260.812,194.854,265.053,197.847,269.65,197.847z"/><path d="M106.346,287.25c-1.554-0.369-3.081-0.75-4.572-1.141c-5.691-1.491-11.53,1.911-13.025,7.611 c-1.494,5.697,1.913,11.529,7.611,13.024c1.652,0.433,3.341,0.854,5.061,1.263c0.828,0.196,1.657,0.29,2.471,0.29 c4.829,0,9.205-3.302,10.369-8.206C115.622,294.359,112.078,288.609,106.346,287.25z"/>
    </symbol>
    <symbol id="coin-stack" viewBox="0 0 401.601 401.6">
        <title>coin-stack</title>
        <path d="M116.682,229.329c11.286,0,22.195-0.729,32.518-2.086V114.094c-10.322-1.356-21.232-2.085-32.518-2.085 c-64.441,0-116.681,23.693-116.681,52.921v11.477C0.001,205.634,52.241,229.329,116.682,229.329z"/><path d="M116.682,288.411c11.286,0,22.195-0.729,32.518-2.084v-33.166c-10.325,1.356-21.229,2.095-32.518,2.095 c-56.25,0-103.199-18.054-114.227-42.082c-1.606,3.5-2.454,7.124-2.454,10.839v11.477 C0.001,264.718,52.241,288.411,116.682,288.411z"/><path d="M149.199,314.823v-2.578c-10.325,1.356-21.229,2.095-32.518,2.095c-56.25,0-103.199-18.054-114.227-42.082 C0.848,275.757,0,279.381,0,283.096v11.477c0,29.229,52.24,52.922,116.681,52.922c12.887,0,25.282-0.95,36.873-2.7 c-2.873-5.877-4.355-12.075-4.355-18.496V314.823z"/><path d="M284.92,22.379c-64.441,0-116.681,23.693-116.681,52.921v11.477c0,29.228,52.24,52.921,116.681,52.921 c64.44,0,116.681-23.693,116.681-52.921V75.3C401.601,46.072,349.36,22.379,284.92,22.379z"/><path d="M284.92,165.626c-56.25,0-103.199-18.053-114.227-42.082c-1.606,3.499-2.454,7.123-2.454,10.839v11.477 c0,29.228,52.24,52.921,116.681,52.921c64.44,0,116.681-23.693,116.681-52.921v-11.477c0-3.716-0.848-7.34-2.454-10.839 C388.119,147.573,341.17,165.626,284.92,165.626z"/><path d="M284.92,224.71c-56.25,0-103.199-18.054-114.227-42.082c-1.606,3.499-2.454,7.123-2.454,10.839v11.477 c0,29.229,52.24,52.922,116.681,52.922c64.44,0,116.681-23.693,116.681-52.922v-11.477c0-3.716-0.848-7.34-2.454-10.839 C388.119,206.657,341.17,224.71,284.92,224.71z"/><path d="M284.92,286.983c-56.25,0-103.199-18.054-114.227-42.082c-1.606,3.5-2.454,7.123-2.454,10.838v11.478 c0,29.228,52.24,52.921,116.681,52.921c64.44,0,116.681-23.693,116.681-52.921v-11.478c0-3.715-0.848-7.34-2.454-10.838 C388.119,268.928,341.17,286.983,284.92,286.983z"/><path d="M284.92,346.066c-56.25,0-103.199-18.053-114.227-42.081c-1.606,3.5-2.454,7.125-2.454,10.838V326.3 c0,29.228,52.24,52.921,116.681,52.921c64.44,0,116.681-23.693,116.681-52.921v-11.478c0-3.715-0.848-7.34-2.454-10.838 C388.119,328.012,341.17,346.066,284.92,346.066z"/>
    </symbol>
    <symbol id="money" viewBox="0 0 512.001 512.001">
        <title>money</title>
        <g> <g> <path d="M341.954,328.358c-12.131,0-22-8.542-22-19.041c0-10.5,9.869-19.042,22-19.042c12.131,0,22,8.542,22,19.042 c0,5.522,4.478,10,10,10c5.522,0,10-4.478,10-10c0-18.325-13.654-33.733-32-37.915v-5.201c0-5.522-4.478-10-10-10 c-5.522,0-10,4.478-10,10v5.201c-18.346,4.182-32,19.59-32,37.915c0,21.527,18.841,39.041,42,39.041c12.131,0,22,8.542,22,19.042 s-9.869,19.042-22,19.042c-12.131,0-22-8.542-22-19.042c0-5.522-4.478-10-10-10c-5.522,0-10,4.478-10,10 c0,18.325,13.654,33.733,32,37.915v4.32c0,5.522,4.478,10,10,10c5.522,0,10-4.478,10-10v-4.32c18.346-4.182,32-19.59,32-37.915 C383.954,345.872,365.113,328.358,341.954,328.358z"/> </g> </g><g> <g> <path d="M451.482,268.876c-13.063-20.355-31.467-36.643-53.222-47.101c-4.979-2.394-10.954-0.298-13.346,4.68 c-2.393,4.978-0.298,10.952,4.68,13.345C427.505,258.024,452,296.963,452,339.001c0,17.988-4.434,35.827-12.821,51.591 c-2.594,4.875-0.745,10.931,4.131,13.525c1.496,0.796,3.104,1.174,4.688,1.174c3.578,0,7.039-1.926,8.837-5.305 C466.756,381.342,472,360.253,472,339.001C472,314.041,464.905,289.792,451.482,268.876z"/> </g> </g><g> <g> <path d="M357.673,209.002L357,209.001c-5.522,0-10,4.477-10,10c0,5.523,4.478,10,10,10l0.579,0.001c0.016,0,0.031,0,0.048,0 c5.501,0,9.973-4.446,9.999-9.953C367.651,213.526,363.195,209.028,357.673,209.002z"/> </g> </g><g> <g> <path d="M294.407,438.202c-37.91-18.225-62.405-57.164-62.405-99.201c0-17.988,4.434-35.827,12.821-51.591 c2.594-4.875,0.745-10.931-4.131-13.525c-4.874-2.594-10.932-0.745-13.525,4.131c-9.921,18.645-15.165,39.733-15.165,60.985 c0,24.96,7.095,49.208,20.518,70.125c13.063,20.355,31.467,36.643,53.222,47.102c1.397,0.672,2.873,0.989,4.326,0.989 c3.724,0,7.298-2.089,9.02-5.669C301.479,446.57,299.385,440.595,294.407,438.202z"/> </g> </g><g> <g> <path d="M327.002,449.001l-0.579-0.002c-5.548-0.01-10.02,4.429-10.045,9.953c-0.026,5.523,4.432,10.021,9.954,10.047l0.67,0.002 c5.522,0,10-4.478,10-10C337.002,453.479,332.524,449.001,327.002,449.001z"/> </g> </g><g> <g> <path d="M387.409,175.168c-1.217-2.9-2.708-5.633-4.443-8.168H409c25.364,0,46-20.636,46-46s-20.636-46-46-46h-80.08 c5.091-7.402,8.08-16.357,8.08-26c0-25.364-20.636-46-46-46H46C20.636,3,0,23.636,0,49s20.636,46,46,46h80.08 c-5.091,7.402-8.08,16.357-8.08,26s2.988,18.598,8.08,26H100c-25.364,0-46,20.636-46,46c0,14.567,6.814,27.566,17.415,36 C60.814,237.434,54,250.433,54,265s6.814,27.566,17.415,36C60.814,309.434,54,322.433,54,337c0,14.567,6.814,27.566,17.415,36 C60.814,381.434,54,394.433,54,409c0,25.364,20.636,46,46,46h117.85c31.046,33.207,75.212,54.001,124.151,54.001 c93.738,0,170-76.262,170-170C512.001,260.984,459.171,195.083,387.409,175.168z M409,95c14.337,0,26,11.664,26,26 s-11.663,26-26,26h-64H164c-14.337,0-26-11.664-26-26s11.663-26,26-26H409z M46,75c-14.337,0-26-11.664-26-26s11.663-26,26-26h245 c14.337,0,26,11.664,26,26s-11.663,26-26,26H46z M100,167h245c4.028,0,7.885,0.936,11.345,2.612 c-4.73-0.397-9.512-0.611-14.344-0.611c-46.945,0-89.505,19.129-120.299,49.999H100c-14.336,0-26-11.664-26-26S85.664,167,100,167 z M100,239h104.615c-11.352,15.553-20.129,33.095-25.703,52H100c-14.337,0-26-11.663-26-26C74,250.664,85.663,239,100,239z M100,311h74.32c-1.517,9.113-2.319,18.464-2.319,28.001c0,8.146,0.589,16.156,1.702,23.999H100c-14.337,0-26-11.663-26-26 C74,322.663,85.663,311,100,311z M100,435c-14.337,0-26-11.663-26-26c0-14.337,11.663-26,26-26h77.786 c5.046,18.813,13.243,36.346,23.993,52H100z M342.001,489.001c-82.71,0-150-67.29-150-150s67.29-150,150-150s150,67.29,150,150 S424.711,489.001,342.001,489.001z"/> </g> </g>
    </symbol>
    <symbol id="money-1" viewBox="0 0 487.901 487.901">
        <title>money-1</title>
        <g> <g> <path d="M391.2,185.9c0-32.1-26-58.1-58.1-58.1s-58.1,26-58.1,58.1s26,58.1,58.1,58.1C365.2,244,391.2,218,391.2,185.9z M329.9,225.6c-1.6,0-2.4-0.9-2.4-2.5c0-1.3,0-2.5,0-3.8c0-2.8-0.1-2.9-2.8-3.3c-3.4-0.5-6.7-1.3-9.9-2.8 c-2.4-1.2-2.7-1.8-2-4.4c0.5-1.9,1-3.8,1.6-5.7c0.7-2.2,1.3-2.5,3.3-1.4c3.4,1.8,7.1,2.8,10.9,3.3c2.5,0.3,4.9,0.1,7.2-0.9 c4.3-1.9,4.9-6.8,1.3-9.8c-1.2-1-2.6-1.8-4.1-2.4c-3.7-1.6-7.7-2.9-11.2-5c-5.7-3.4-9.4-8.2-9-15.1c0.5-7.9,4.9-12.8,12.2-15.5 c3-1.1,3-1,3-4.2c0-1.1,0-2.1,0-3.2c0.1-2.4,0.5-2.8,2.8-2.8c0.7,0,1.5,0,2.2,0c5,0,5,0,5,5c0,3.5,0,3.5,3.5,4.1 c2.7,0.4,5.3,1.2,7.8,2.3c1.4,0.6,1.9,1.6,1.5,3c-0.6,2.2-1.2,4.3-1.9,6.5c-0.7,2-1.3,2.3-3.2,1.4c-3.9-1.9-8-2.7-12.3-2.4 c-1.1,0.1-2.2,0.2-3.3,0.7c-3.7,1.6-4.3,5.7-1.2,8.3c1.6,1.3,3.4,2.2,5.3,3c3.3,1.4,6.6,2.7,9.7,4.4c10,5.5,12.7,18,5.6,26.6 c-2.5,3.1-5.8,5.2-9.7,6.2c-1.7,0.5-2.4,1.3-2.4,3.1c0.1,1.7,0,3.4,0,5.1c0,1.5-0.8,2.4-2.3,2.4 C333.6,225.7,331.7,225.7,329.9,225.6z"/> </g> </g><g> <circle cx="248.6" cy="188.8" r="16.1"/> </g><g> <circle cx="417.7" cy="188.8" r="16.1"/> </g><g> <path d="M461.5,91.1H208.4c-14.6,0-26.5,11.9-26.5,26.5V206c3.9-0.2,7.8-0.3,11.8-0.3c3.7,0,7.3,0.1,10.9,0.3v-59.7 c2.1,0.5,4.3,0.8,6.6,0.8c14.8,0,26.9-12,26.9-26.9c0-2.3-0.3-4.5-0.8-6.6h197.1c-0.3,1.6-0.5,3.3-0.5,4.9 c0,14.8,12,26.9,26.9,26.9c1.6,0,3.2-0.2,4.7-0.4v81.5c-1.5-0.3-3.1-0.4-4.7-0.4c-14.8,0-26.9,12-26.9,26.9 c0,1.7,0.2,3.3,0.5,4.9H293.1c0,0.6,0,1.2,0,1.8c0,0.3,0,0.5,0,0.8v20.1h168.3c14.6,0,26.5-11.9,26.5-26.5V117.6 C488,103,476.1,91.1,461.5,91.1z"/> </g><g> <g> <path d="M27,220.6c14.6,5.5,33.9,8.5,54.3,8.5c10.8,0,21.3-0.9,30.9-2.5c5.3-4,12.1-7.8,20.8-11c8.7-3.2,18.8-5.7,29.6-7.3 v-14.5c0-0.2,0-0.4,0-0.6l0,0c0-0.1,0-0.3,0-0.4v-34c0-0.2,0-0.4,0-0.6l0,0c0-0.1,0-0.3,0-0.4v-34c0-0.2,0-0.4,0-0.6 c0-7.9-4.7-19.1-27-27.5c-14.6-5.6-33.9-8.6-54.3-8.6s-39.7,3-54.3,8.5c-22.3,8.3-27,19.5-27,27.5v34.6c0,0.1,0,0.3,0,0.4l0,0 v34.6c0,0.1,0,0.3,0,0.4l0,0v0.4v34.2v0.4c0,0.1,0,0.3,0,0.4l0,0v34.6c0,0.1,0,0.3,0,0.4l0,0v34.6c0,7.9,4.7,19.1,27,27.5 c14.6,5.5,33.9,8.5,54.3,8.5c4.4,0,8.7-0.1,13-0.4v-3.4v-0.4c0-0.1,0-0.1,0-0.2s0-0.2,0-0.2v-13.7c-4.2,0.3-8.6,0.5-13,0.5 c-18.3,0-35.4-2.6-48-7.3c-12.5-4.7-15.4-9.4-15.4-10.6v-11.3c2.6,1.4,5.7,2.7,9.1,4c14.6,5.5,33.9,8.5,54.3,8.5 c4.4,0,8.7-0.1,13-0.4v-4.3c0-0.1,0-0.1,0-0.2s0-0.2,0-0.2v-13.7c-4.2,0.3-8.6,0.5-13,0.5c-18.3,0-35.4-2.6-48-7.3 c-12.5-4.7-15.4-9.4-15.4-10.6v-11.2c2.6,1.4,5.7,2.7,9.1,4c14.6,5.5,33.9,8.5,54.3,8.5c4.4,0,8.7-0.1,13-0.4V260 c0-4,0.6-9.2,3-14.8c-5.2,0.5-10.5,0.7-16,0.7c-18.3,0-35.4-2.6-48-7.3c-12.5-4.7-15.4-9.4-15.4-10.6v-11.2 C20.6,217.9,23.6,219.3,27,220.6z M33.3,112.4c12.7-4.7,29.8-7.3,48-7.3c18.3,0,35.4,2.6,48,7.3c12.1,4.5,15.1,9,15.3,10.5v0.3 c-0.2,1.5-3.2,6-15.3,10.5c-12.7,4.7-29.8,7.3-48,7.3c-18.3,0-35.4-2.6-48-7.3c-12.5-4.7-15.4-9.4-15.4-10.6 S20.8,117,33.3,112.4z M17.9,146.4c2.6,1.4,5.7,2.7,9.1,4c14.6,5.5,33.9,8.5,54.3,8.5s39.7-3,54.3-8.5c3.4-1.3,6.4-2.6,9.1-4 v11.2l0,0l0,0v0.1c-0.2,1.5-3.2,6-15.3,10.5c-12.7,4.7-29.8,7.3-48,7.3c-18.3,0-35.4-2.6-48-7.3c-12.5-4.7-15.4-9.4-15.4-10.6 v-11.2H17.9z M17.9,181.5c2.6,1.4,5.7,2.7,9.1,4c14.6,5.5,33.9,8.5,54.3,8.5s39.7-3,54.3-8.5c3.4-1.3,6.4-2.6,9.1-4v11.2l0,0 l0,0v0.1c-0.2,1.5-3.2,6-15.3,10.5c-12.7,4.7-29.8,7.3-48,7.3c-18.3,0-35.4-2.6-48-7.3c-12.5-4.7-15.4-9.4-15.4-10.6v-11.2H17.9 z"/> </g> </g><g> <g> <path d="M247.9,232.3c-14.6-5.5-33.9-8.5-54.3-8.5s-39.7,3-54.3,8.5c-22.3,8.3-27,19.5-27,27.5v34.6c0,0.1,0,0.3,0,0.4l0,0v34.6 c0,0.1,0,0.3,0,0.4l0,0v0.4v34.2v0.4c0,7.9,4.7,19.1,27,27.5c14.6,5.5,33.9,8.5,54.3,8.5s39.7-3,54.3-8.5 c22.3-8.3,27-19.5,27-27.5v-0.4l0,0v-34c0-0.2,0-0.4,0-0.6l0,0c0-0.1,0-0.3,0-0.4v-34c0-0.2,0-0.4,0-0.6l0,0c0-0.1,0-0.3,0-0.4 v-34c0-0.2,0-0.4,0-0.6C275,251.9,270.3,240.7,247.9,232.3z M145.6,249.2c12.7-4.7,29.8-7.3,48-7.3c18.3,0,35.4,2.6,48,7.3 c12.1,4.5,15.2,9,15.3,10.5v0.3c-0.2,1.5-3.2,6-15.3,10.5c-12.7,4.7-29.8,7.3-48,7.3c-18.3,0-35.4-2.6-48-7.3 c-12.5-4.7-15.4-9.4-15.4-10.6S133,253.8,145.6,249.2z M241.7,375.2c-12.7,4.7-29.8,7.3-48,7.3c-18.3,0-35.4-2.6-48-7.3 c-12.5-4.7-15.4-9.4-15.4-10.6v-11.2c2.6,1.4,5.7,2.7,9.1,4c14.6,5.5,33.9,8.5,54.3,8.5s39.7-3,54.3-8.5c3.4-1.3,6.4-2.6,9.1-4 v11.2C257,365.8,254.2,370.5,241.7,375.2z M257,329.5L257,329.5v0.1c-0.2,1.5-3.2,6-15.3,10.5c-12.7,4.7-29.8,7.3-48,7.3 c-18.3,0-35.4-2.6-48-7.3c-12.5-4.7-15.4-9.4-15.4-10.6v-11.2c2.6,1.4,5.7,2.7,9.1,4c14.6,5.5,33.9,8.5,54.3,8.5 s39.7-3,54.3-8.5c3.4-1.3,6.4-2.6,9.1-4L257,329.5L257,329.5z M257,294.4L257,294.4v0.1c-0.2,1.5-3.2,6-15.3,10.5 c-12.7,4.7-29.8,7.3-48,7.3c-18.3,0-35.4-2.6-48-7.3c-12.5-4.7-15.4-9.4-15.4-10.6v-11.2c2.6,1.4,5.7,2.7,9.1,4 c14.6,5.5,33.9,8.5,54.3,8.5s39.7-3,54.3-8.5c3.4-1.3,6.4-2.6,9.1-4L257,294.4L257,294.4z"/> </g> </g>
    </symbol>
    <symbol id="coins" viewBox="0 0 60 60">
        <title>coins</title>
        <path d="M19.603,21.297l-0.257,0.093l3.45,0.722C25.606,22.702,28.621,23,31.753,23c1.615,0,3.197-0.084,4.737-0.241 c2.638-0.238,5.064-0.677,7.235-1.267l0.273-0.056l-0.034-0.013C50.783,19.518,55,16.143,55,13c0-4.424-8.603-9-23-9S9,8.576,9,13 C9,16.076,13.04,19.372,19.603,21.297z M28.46,16.895c-1.623-0.529-2.546-1.435-2.746-2.692l-0.108-0.679l-0.673-0.143 c-0.161-0.034-0.269-0.082-0.333-0.12l0.141-0.462c0.036-0.066,0.253-0.25,0.663-0.368l0.449-0.128l0.19-0.426 c0.198-0.444,0.472-0.845,0.813-1.19c0.15-0.152,0.274-0.265,0.374-0.356c0.329-0.3,0.544-0.551,0.646-0.875 c1.19,0.393,2.521,0.434,3.443,0.395c0.143-0.006,0.288-0.009,0.436-0.009c4.261,0,5.301,1.169,5.712,2.048l0.193,0.414 l0.439,0.125c0.412,0.117,0.631,0.302,0.66,0.352l0.148,0.481c-0.064,0.038-0.172,0.085-0.333,0.119L37.9,13.523l-0.108,0.68 c-0.2,1.257-1.124,2.163-2.746,2.692l-0.777,0.253l0.214,1.858c0.076,0.65,0.554,1.215,1.249,1.475l0.734,0.275 c-0.24,0.026-0.489,0.036-0.732,0.057c-1.193,0.091-2.426,0.153-3.735,0.153c-1.74,0-3.376-0.089-4.911-0.245l0.661-0.239 c0.709-0.256,1.197-0.825,1.273-1.484l0.213-1.85L28.46,16.895z M32,6c13.982,0,21,4.488,21,7c0,2.06-4.316,5.6-12.379,7.171 l-4.17-1.562l-0.012-0.104c2.005-0.868,2.854-2.203,3.191-3.371c0.47-0.206,0.837-0.515,1.064-0.9 c0.255-0.434,0.314-0.94,0.165-1.424l-0.189-0.616c-0.201-0.654-0.786-1.211-1.6-1.542c-1.476-2.507-4.854-2.809-7.317-2.809 c-0.175,0-0.348,0.004-0.518,0.011c-1.118,0.045-2.13-0.074-2.852-0.337c-0.407-0.148-0.569-0.251-0.619-0.288 c-0.416-0.308-0.952-0.268-1.299-0.093l-0.603,0.342v0.616c0,0.193,0.014,0.423,0.057,0.675c0.002,0.015,0.005,0.03,0.007,0.044 c-0.015,0.013-0.031,0.027-0.047,0.042c-0.119,0.109-0.267,0.244-0.446,0.425c-0.407,0.412-0.75,0.875-1.022,1.382 c-0.801,0.332-1.376,0.884-1.576,1.531l-0.189,0.617c-0.148,0.484-0.09,0.99,0.166,1.424c0.227,0.385,0.594,0.694,1.063,0.9 c0.337,1.168,1.187,2.503,3.191,3.371l-0.012,0.103l-4.112,1.484C15.155,18.481,11,15.024,11,13C11,10.488,18.018,6,32,6z"/><path d="M54,29.647v-0.252c3.155-2.219,5-4.954,5-7.947V13C59,5.589,47.393,0,32,0S5,5.589,5,13v2.27C1.738,17.456,0,20.116,0,23 v8.448c0,3.297,2.235,6.283,6,8.609v6.391C6,54.047,17.86,60,33,60s27-5.953,27-13.552V38C60,34.815,57.914,31.941,54,29.647z M58,38c0,6.393-11.682,12-25,12c-0.575,0-1.146-0.015-1.714-0.035c-0.169-0.006-0.338-0.012-0.507-0.02 c-0.495-0.022-0.987-0.052-1.475-0.09c-0.318-0.025-0.633-0.055-0.948-0.086c-0.139-0.013-0.278-0.028-0.416-0.042 c-8.227-0.885-15.225-3.852-18.286-7.6c-0.04-0.05-0.083-0.099-0.122-0.15c-0.046-0.059-0.087-0.119-0.132-0.179 c1.407,0.6,2.938,1.13,4.581,1.575C18.42,46.293,25.327,47.965,33,47.965c13.554,0,23-5.252,23-9.965 c0-1.389-0.844-2.772-2.448-4.032c0.026-0.071,0.044-0.144,0.068-0.216c0.034-0.104,0.069-0.207,0.098-0.311 c0.034-0.121,0.062-0.242,0.09-0.364c0.024-0.105,0.049-0.21,0.069-0.316c0.023-0.123,0.038-0.247,0.054-0.37 c0.014-0.107,0.029-0.213,0.039-0.32c0.003-0.031,0.009-0.062,0.011-0.093C56.05,33.377,58,35.39,58,38z M37.131,51.836 c0.03-0.002,0.059-0.006,0.089-0.008c0.574-0.047,1.139-0.106,1.7-0.171c0.145-0.017,0.289-0.034,0.433-0.052 c0.555-0.07,1.106-0.145,1.647-0.232v5.992c-1.293,0.209-2.629,0.371-4,0.478v-5.997C37.043,51.842,37.087,51.84,37.131,51.836z M43,51.005c0.057-0.012,0.11-0.026,0.166-0.038c0.538-0.114,1.07-0.234,1.59-0.365c0.068-0.017,0.134-0.036,0.202-0.054 c0.351-0.09,0.699-0.184,1.041-0.281v5.989c-0.961,0.277-1.963,0.524-3,0.74V51.005z M48,49.634 c0.054-0.019,0.107-0.037,0.16-0.056c0.076-0.027,0.148-0.055,0.224-0.082c0.413-0.149,0.817-0.305,1.214-0.465 c0.113-0.046,0.226-0.091,0.337-0.137c0.022-0.009,0.044-0.018,0.066-0.027v5.963c-0.638,0.277-1.304,0.54-2,0.786V49.634z M52,47.936c0.172-0.088,0.338-0.18,0.505-0.27c0.097-0.052,0.194-0.104,0.289-0.157c0.386-0.216,0.761-0.438,1.12-0.666 c0.028-0.018,0.057-0.035,0.085-0.053v5.825c-0.608,0.434-1.276,0.85-2,1.243V47.936z M12,46.79c0.623,0.399,1.298,0.774,2,1.135 v5.933c-0.724-0.394-1.392-0.809-2-1.243V46.79z M6,31.79c0.028,0.018,0.057,0.035,0.085,0.053c0.36,0.228,0.734,0.45,1.12,0.666 c0.095,0.053,0.193,0.105,0.289,0.157c0.167,0.091,0.333,0.182,0.505,0.27V38H6.562C6.369,37.873,6.182,37.745,6,37.615V31.79z M10.403,34.03c0.396,0.161,0.8,0.316,1.214,0.465c0.075,0.027,0.148,0.056,0.224,0.082c0.053,0.019,0.107,0.037,0.16,0.056v5.981 c-0.696-0.246-1.362-0.509-2-0.786v-5.963c0.022,0.009,0.044,0.018,0.066,0.027C10.177,33.94,10.29,33.985,10.403,34.03z M15.243,35.601c0.52,0.131,1.052,0.251,1.59,0.365c0.056,0.012,0.11,0.026,0.166,0.038v5.991c-0.057-0.012-0.114-0.024-0.17-0.036 c-0.537-0.113-1.065-0.235-1.584-0.366c-0.423-0.107-0.837-0.221-1.245-0.338v-5.989c0.342,0.098,0.69,0.191,1.041,0.281 C15.109,35.565,15.175,35.584,15.243,35.601z M21.079,36.657c0.561,0.065,1.127,0.124,1.7,0.171 c0.03,0.002,0.059,0.006,0.089,0.008c0.043,0.003,0.087,0.006,0.131,0.009v5.984c-0.688-0.053-1.373-0.112-2.048-0.191 c-0.326-0.038-0.647-0.085-0.969-0.129c-0.332-0.046-0.655-0.104-0.983-0.156v-5.98c0.541,0.087,1.092,0.163,1.647,0.232 C20.791,36.623,20.935,36.64,21.079,36.657z M27,37c0.671,0,1.336-0.023,2-0.049v6.007c-0.021,0.001-0.042,0.002-0.063,0.002 C28.295,42.984,27.651,43,27,43c-0.67,0-1.334-0.036-2-0.062V36.96c0.044,0.002,0.09,0.001,0.134,0.003 C25.751,36.985,26.372,37,27,37z M7,18.289c0.016,0.02,0.035,0.039,0.051,0.058c0.222,0.277,0.461,0.55,0.715,0.818 c0.057,0.06,0.117,0.118,0.175,0.177c0.226,0.229,0.463,0.454,0.711,0.676c0.059,0.053,0.115,0.106,0.176,0.158 C8.886,20.226,8.942,20.275,9,20.323v5.571c-1.285-1.376-2-2.881-2-4.446V18.289z M11,21.79c0.028,0.018,0.057,0.035,0.085,0.053 c0.36,0.228,0.734,0.45,1.12,0.666c0.095,0.053,0.193,0.105,0.289,0.157c0.167,0.091,0.333,0.182,0.505,0.27v5.922 c-0.724-0.394-1.392-0.809-2-1.243V21.79z M15,23.866c0.022,0.009,0.044,0.018,0.066,0.027c0.111,0.047,0.224,0.092,0.337,0.137 c0.396,0.161,0.8,0.316,1.214,0.465c0.075,0.027,0.148,0.056,0.224,0.082c0.053,0.019,0.107,0.037,0.16,0.056v5.981 c-0.696-0.246-1.362-0.509-2-0.786V23.866z M19,25.266c0.342,0.098,0.69,0.191,1.041,0.281c0.068,0.018,0.134,0.037,0.202,0.054 c0.52,0.131,1.052,0.251,1.59,0.365c0.056,0.012,0.11,0.026,0.166,0.038v5.991c-1.037-0.216-2.039-0.463-3-0.74V25.266z M24,26.372 c0.541,0.087,1.092,0.163,1.647,0.232c0.144,0.018,0.288,0.035,0.433,0.052c0.561,0.065,1.127,0.124,1.7,0.171 c0.03,0.002,0.059,0.006,0.089,0.008c0.043,0.003,0.087,0.006,0.131,0.009v5.997c-1.371-0.107-2.707-0.268-4-0.478V26.372z M32,27 c0.628,0,1.249-0.015,1.866-0.037c0.044-0.002,0.09-0.001,0.134-0.003v5.977C33.334,32.963,32.671,33,32,33 c-0.673,0-1.339-0.017-2-0.042V26.96c0.044,0.002,0.09,0.001,0.134,0.003C30.751,26.985,31.372,27,32,27z M36.22,26.828 c0.574-0.047,1.139-0.106,1.7-0.171c0.145-0.017,0.289-0.034,0.433-0.052c0.555-0.07,1.106-0.145,1.647-0.232v5.979 c-0.376,0.06-0.744,0.13-1.126,0.182c-0.2,0.027-0.398,0.056-0.6,0.081c-0.749,0.092-1.51,0.157-2.274,0.216v-5.984 c0.043-0.003,0.087-0.006,0.131-0.009C36.161,26.834,36.19,26.83,36.22,26.828z M43.757,25.601 c0.068-0.017,0.134-0.036,0.202-0.054c0.351-0.09,0.699-0.184,1.041-0.281v5.989c-0.128,0.037-0.257,0.073-0.386,0.108 c-0.001,0-0.003,0-0.004,0.001c-0.224,0.062-0.45,0.124-0.678,0.183c-0.551,0.142-1.111,0.273-1.681,0.395 c-0.084,0.018-0.167,0.036-0.251,0.053v-5.991c0.057-0.012,0.11-0.026,0.166-0.038C42.705,25.852,43.237,25.732,43.757,25.601z M47.384,24.496c0.413-0.149,0.817-0.305,1.214-0.465c0.113-0.046,0.226-0.091,0.337-0.137c0.022-0.009,0.044-0.018,0.066-0.027 v5.963c-0.638,0.277-1.304,0.54-2,0.786v-5.981c0.054-0.019,0.107-0.037,0.16-0.056C47.236,24.551,47.309,24.523,47.384,24.496z M51.794,22.508c0.386-0.216,0.761-0.438,1.12-0.666c0.028-0.018,0.057-0.035,0.085-0.053v5.825c-0.608,0.434-1.276,0.85-2,1.243 v-5.922c0.172-0.088,0.338-0.18,0.505-0.27C51.602,22.613,51.699,22.561,51.794,22.508z M24.527,44.943 c0.038,0.002,0.076,0.003,0.113,0.004c0.042,0.002,0.085,0.003,0.128,0.005c0.084,0.003,0.168,0.006,0.252,0.009 C25.674,44.984,26.332,45,27,45c0.468,0,0.932-0.006,1.393-0.017c0.151-0.004,0.299-0.011,0.449-0.016 c0.062-0.002,0.124-0.005,0.187-0.007c0.091-0.003,0.183-0.006,0.274-0.01c0.155-0.006,0.311-0.01,0.465-0.018 c0.18-0.009,0.358-0.022,0.537-0.033c0.271-0.016,0.543-0.03,0.811-0.05c0.197-0.015,0.391-0.033,0.587-0.05 c0.248-0.021,0.497-0.041,0.742-0.065c0.196-0.019,0.388-0.043,0.582-0.064c0.241-0.027,0.484-0.052,0.723-0.082 c0.196-0.024,0.388-0.053,0.582-0.079c0.232-0.032,0.464-0.062,0.693-0.097c0.195-0.029,0.386-0.062,0.578-0.094 c0.225-0.037,0.45-0.072,0.672-0.112c0.192-0.034,0.38-0.072,0.57-0.108c0.216-0.041,0.434-0.082,0.647-0.126 c0.19-0.039,0.377-0.082,0.565-0.123c0.209-0.046,0.418-0.091,0.624-0.139c0.185-0.044,0.367-0.09,0.549-0.136 c0.204-0.051,0.408-0.101,0.608-0.154c0.178-0.047,0.352-0.097,0.528-0.146c0.199-0.056,0.399-0.111,0.595-0.17 c0.174-0.052,0.345-0.106,0.516-0.16c0.191-0.06,0.381-0.119,0.568-0.181c0.17-0.056,0.337-0.115,0.504-0.173 c0.183-0.064,0.366-0.127,0.545-0.193c0.165-0.06,0.326-0.123,0.487-0.185c0.176-0.068,0.352-0.136,0.524-0.206 c0.157-0.064,0.311-0.13,0.466-0.195c0.17-0.073,0.341-0.145,0.507-0.22c0.15-0.067,0.297-0.136,0.444-0.205 c0.163-0.076,0.325-0.153,0.485-0.232c0.144-0.071,0.286-0.144,0.427-0.217c0.154-0.08,0.308-0.16,0.458-0.242 c0.138-0.075,0.273-0.151,0.407-0.227c0.147-0.084,0.293-0.168,0.436-0.253c0.13-0.078,0.257-0.156,0.383-0.236 c0.14-0.088,0.278-0.176,0.413-0.265c0.122-0.081,0.242-0.163,0.361-0.245c0.131-0.091,0.261-0.183,0.388-0.276 c0.114-0.083,0.226-0.168,0.336-0.253c0.123-0.095,0.244-0.19,0.363-0.287c0.106-0.086,0.21-0.173,0.313-0.261 c0.114-0.098,0.226-0.197,0.336-0.296c0.098-0.089,0.194-0.178,0.288-0.269c0.105-0.101,0.207-0.203,0.308-0.305 c0.09-0.092,0.178-0.184,0.264-0.277c0.095-0.104,0.187-0.208,0.278-0.313c0.081-0.095,0.162-0.19,0.239-0.286 c0.086-0.106,0.168-0.214,0.248-0.322c0.072-0.097,0.144-0.194,0.212-0.292c0.055-0.079,0.109-0.158,0.161-0.238 C53.51,36.563,54,37.339,54,38c0,2.704-7.412,7.965-21,7.965c-4.115,0-7.484-0.469-10.179-1.12 C23.383,44.888,23.953,44.918,24.527,44.943z M42,40.615v-6.022c0.064-0.023,0.127-0.046,0.191-0.069 c0.367-0.131,0.742-0.255,1.097-0.396c0.244-0.097,0.472-0.206,0.711-0.308v6.009C43.362,40.106,42.696,40.369,42,40.615z M37.783,35.803c0.419-0.096,0.844-0.185,1.253-0.292c0.328-0.086,0.641-0.188,0.963-0.281v6.025c-0.961,0.277-1.963,0.524-3,0.74 v-6.01C37.265,35.929,37.522,35.863,37.783,35.803z M46,38.858v-5.764c0.689-0.206,1.354-0.428,2-0.663v5.184 C47.392,38.049,46.724,38.464,46,38.858z M31.986,36.756c0.33-0.033,0.652-0.082,0.979-0.121c0.482-0.057,0.968-0.108,1.443-0.18 c0.2-0.03,0.393-0.071,0.592-0.104v6.014c-0.084,0.014-0.169,0.027-0.253,0.041c-0.299,0.046-0.6,0.091-0.904,0.132 c-0.235,0.032-0.469,0.066-0.707,0.095c-0.517,0.062-1.04,0.116-1.568,0.162c-0.175,0.016-0.35,0.031-0.526,0.045 c-0.014,0.001-0.029,0.002-0.043,0.003v-6.013C31.328,36.803,31.66,36.788,31.986,36.756z M52,31.448 c0,0.761-0.172,1.507-0.493,2.231l-0.091,0.188c-0.297,0.617-0.709,1.212-1.206,1.786c-0.06,0.068-0.115,0.137-0.178,0.204 c-0.01,0.011-0.022,0.021-0.032,0.032v-4.263c0.7-0.311,1.369-0.639,2-0.985V31.448z M16,48.864c0.643,0.271,1.31,0.527,2,0.767 v5.984c-0.696-0.246-1.362-0.509-2-0.786V48.864z M20,50.259c0.968,0.277,1.964,0.531,3,0.746v5.991 c-1.037-0.216-2.039-0.463-3-0.74V50.259z M25,51.371c0.156,0.025,0.318,0.044,0.476,0.068c0.239,0.036,0.48,0.07,0.721,0.102 c0.377,0.051,0.755,0.099,1.138,0.142c0.381,0.043,0.764,0.081,1.15,0.116c0.172,0.015,0.342,0.032,0.515,0.046v5.999 c-1.371-0.107-2.707-0.268-4-0.478V51.371z M57,18.289v3.16c0,1.565-0.715,3.07-2,4.446v-5.571 c0.058-0.048,0.114-0.097,0.171-0.146c0.06-0.052,0.117-0.106,0.176-0.158c0.249-0.222,0.486-0.447,0.711-0.676 c0.058-0.059,0.119-0.118,0.175-0.177c0.255-0.268,0.493-0.541,0.715-0.818C56.965,18.327,56.984,18.308,57,18.289z M32,2 c14.019,0,25,4.832,25,11c0,6.393-11.682,12-25,12S7,19.393,7,13C7,6.832,17.981,2,32,2z M5,17.734v3.714 c0,0.231,0.012,0.46,0.034,0.688c0.007,0.076,0.022,0.151,0.031,0.227c0.019,0.151,0.038,0.302,0.066,0.452 c0.017,0.089,0.041,0.177,0.062,0.266c0.031,0.134,0.061,0.269,0.099,0.402c0.027,0.094,0.061,0.187,0.092,0.281 c0.041,0.125,0.082,0.25,0.13,0.374c0.037,0.097,0.08,0.192,0.121,0.288c0.051,0.119,0.103,0.239,0.16,0.357 c0.047,0.096,0.098,0.191,0.149,0.286c0.062,0.116,0.124,0.231,0.191,0.345c0.056,0.095,0.116,0.19,0.176,0.284 c0.071,0.112,0.144,0.223,0.22,0.334c0.065,0.094,0.134,0.188,0.203,0.281c0.081,0.108,0.163,0.216,0.249,0.323 c0.074,0.092,0.151,0.184,0.229,0.276c0.09,0.106,0.183,0.21,0.279,0.314c0.082,0.09,0.166,0.179,0.252,0.268 c0.1,0.103,0.204,0.205,0.309,0.307c0.09,0.087,0.18,0.174,0.274,0.259c0.11,0.1,0.223,0.2,0.338,0.298 c0.098,0.084,0.195,0.169,0.296,0.252c0.119,0.098,0.244,0.194,0.368,0.291c0.104,0.081,0.207,0.162,0.315,0.241 c0.13,0.096,0.265,0.19,0.4,0.284c0.11,0.077,0.217,0.154,0.33,0.229c0.142,0.095,0.29,0.188,0.438,0.281 c0.113,0.071,0.223,0.144,0.339,0.214c0.159,0.097,0.325,0.19,0.49,0.285c0.111,0.063,0.218,0.128,0.331,0.19 c0.205,0.113,0.417,0.222,0.629,0.331c0.079,0.041,0.155,0.083,0.235,0.123c0.293,0.147,0.593,0.29,0.899,0.43 c0.106,0.048,0.217,0.094,0.325,0.142c0.206,0.091,0.411,0.182,0.623,0.27c0.131,0.054,0.267,0.106,0.4,0.159 c0.194,0.077,0.387,0.155,0.586,0.23c0.146,0.055,0.295,0.107,0.443,0.16c0.193,0.069,0.385,0.139,0.581,0.206 c0.155,0.053,0.313,0.103,0.471,0.154c0.196,0.064,0.391,0.127,0.59,0.188c0.163,0.05,0.329,0.098,0.494,0.146 c0.199,0.058,0.399,0.116,0.601,0.172c0.17,0.047,0.341,0.091,0.513,0.136c0.204,0.053,0.408,0.106,0.615,0.156 c0.175,0.043,0.352,0.084,0.53,0.125c0.21,0.048,0.421,0.096,0.634,0.142c0.18,0.039,0.361,0.076,0.542,0.113 c0.216,0.044,0.432,0.086,0.651,0.127c0.183,0.034,0.367,0.068,0.552,0.1c0.223,0.039,0.449,0.076,0.675,0.112 c0.185,0.03,0.371,0.059,0.558,0.087c0.23,0.034,0.463,0.066,0.696,0.097c0.187,0.025,0.374,0.05,0.563,0.073 c0.24,0.029,0.482,0.056,0.724,0.082c0.186,0.02,0.371,0.041,0.558,0.059c0.25,0.024,0.502,0.045,0.754,0.066 c0.186,0.015,0.37,0.032,0.557,0.045c0.263,0.019,0.529,0.034,0.795,0.049c0.177,0.01,0.353,0.022,0.532,0.031 c0.038,0.002,0.075,0.005,0.113,0.007C28.613,34.98,27.809,35,27,35C13.682,35,2,29.393,2,23C2,20.797,3.415,19.027,5,17.734z M2,31.448v-3.16c0.016,0.02,0.035,0.039,0.051,0.058c0.222,0.277,0.461,0.55,0.715,0.818c0.057,0.06,0.117,0.118,0.175,0.177 c0.226,0.229,0.463,0.454,0.711,0.676c0.059,0.053,0.115,0.106,0.176,0.158C3.886,30.226,3.942,30.275,4,30.323v5.571 C2.715,34.518,2,33.013,2,31.448z M8,46.448v-3.16c0.558,0.707,1.235,1.382,2,2.026v5.579C8.715,49.518,8,48.013,8,46.448z M31,57.958V51.96c0.048,0.002,0.097,0.001,0.145,0.003C31.759,51.985,32.377,52,33,52c0.628,0,1.249-0.015,1.866-0.037 c0.044-0.002,0.09-0.001,0.134-0.003v5.998C34.339,57.983,33.673,58,33,58S31.661,57.983,31,57.958z M58,43.289v3.16 c0,1.565-0.715,3.07-2,4.446v-5.571c0.058-0.048,0.114-0.097,0.171-0.146c0.06-0.052,0.117-0.106,0.176-0.158 c0.249-0.222,0.486-0.447,0.711-0.676c0.058-0.059,0.119-0.118,0.175-0.177c0.255-0.268,0.493-0.541,0.715-0.818 C57.965,43.327,57.984,43.308,58,43.289z"/>
    </symbol>
    <symbol id="chronometer" viewBox="0 0 487.125 487.125">
        <title>chronometer</title>
        <path d="M459.5,168.562c3.5,3.5,9.1,3.5,12.5,0l12.5-12.5c3.5-3.5,3.5-9.1,0-12.5l-28.3-28.3c-3.5-3.5-9.1-3.5-12.5,0l-12.5,12.5 c-3.5,3.5-3.5,9.1,0,12.5l1.2,1.2l-8.8,8.8c-22.2-17.6-49.1-29.3-78.6-32.7v-16h9.7c4.9,0,8.8-4,8.8-8.8v-26c0-4.9-4-8.8-8.8-8.8 h-56.2c-4.9,0-8.8,4-8.8,8.8v26c0,4.9,4,8.8,8.8,8.8h9.7v16c-29.5,3.5-56.5,15.2-78.6,32.7l-8.8-8.8l1.2-1.2 c3.5-3.5,3.5-9.1,0-12.5l-12.5-12.5c-3.5-3.5-9.1-3.5-12.5,0l-28.3,28.3c-3.5,3.5-3.5,9.1,0,12.5l12.5,12.5 c3.5,3.5,9.1,3.5,12.5,0l1.2-1.2l8.8,8.8c-21,26.6-33.5,60.2-33.5,96.6c0,86.2,70.2,156.4,156.4,156.4s156.4-70.2,156.4-156.4 c0-36.4-12.6-70-33.5-96.6l8.8-8.8L459.5,168.562z M326.6,392.962c-66.2,0-120.1-53.9-120.1-120.1s53.9-120.1,120.1-120.1 s120.1,53.9,120.1,120.1S392.8,392.962,326.6,392.962z"/>
        <path d="M63.5,314.763c-8.6,0-15.5,7-15.5,15.5c0,8.6,7,15.5,15.5,15.5h84.1c1.7,0,3.2-0.3,4.7-0.8c-4-9.7-7.3-19.8-9.6-30.3H63.5 V314.763z"/>
        <path d="M152.2,200.962c-1.4-0.4-3-0.8-4.6-0.8H15.5c-8.6,0-15.5,7-15.5,15.5c0,8.6,7,15.5,15.5,15.5h127.1 C144.9,220.962,148.1,210.762,152.2,200.962z"/>
        <path d="M138,272.862c0-5.2,0.3-10.3,0.7-15.4H37.1c-8.6,0-15.5,7-15.5,15.5s7,15.5,15.5,15.5h101.5 C138.3,283.362,138,278.163,138,272.862z"/>
        <path d="M402.1,228.163c-2.6-4.3-8-6-12.5-3.7l-54.1,26.5c-6.7-2.7-14.5-2.4-21.2,1.5c-11.3,6.7-15.1,21.3-8.4,32.6 c6.7,11.3,21.3,15.1,32.6,8.4c6.7-4,10.7-10.7,11.5-17.8l49.3-34.7C403.5,238.062,404.7,232.562,402.1,228.163z M336.6,275.462 c-1.5,5.6-7.2,8.9-12.7,7.5c-5.6-1.5-8.9-7.2-7.5-12.7c1.5-5.6,7.2-8.9,12.7-7.5C334.7,264.163,338,269.962,336.6,275.462z"/>
        <path d="M360.4,213.262c4.7,2.7,10.7,1,13.3-3.7c2.7-4.7,1-10.7-3.7-13.3c-4.7-2.7-10.6-1-13.3,3.7c-1.8,3.2-1.6,6.9,0.1,9.8 C357.7,211.062,358.9,212.363,360.4,213.262z"/><path d="M326,204.262c5.4,0,9.7-4.4,9.7-9.8c0-5.4-4.4-9.7-9.8-9.7s-9.7,4.4-9.7,9.8c0,1.8,0.5,3.5,1.3,4.9 C319.2,202.363,322.4,204.363,326,204.262z"/>
        <path d="M327.3,341.663L327.3,341.663c-5.4,0.1-9.7,4.5-9.7,9.9c0,1.8,0.5,3.4,1.3,4.8c1.7,2.9,4.9,4.9,8.5,4.8 c5.4-0.1,9.7-4.5,9.6-9.9C337.1,346.062,332.7,341.663,327.3,341.663z"/>
        <path d="M361.5,332.163c-4.6,2.7-6.2,8.7-3.4,13.3l0,0c2.7,4.7,8.7,6.2,13.4,3.4c4.6-2.7,6.2-8.7,3.4-13.3 C372.1,330.962,366.1,329.462,361.5,332.163z"/>
        <path d="M399.7,303.163c-4.7-2.6-10.7-1-13.3,3.7c-1.8,3.2-1.6,6.8,0.1,9.8c0.8,1.4,2.1,2.7,3.6,3.5c4.7,2.7,10.7,1,13.3-3.7 C406,311.763,404.4,305.763,399.7,303.163z"/><path d="M257.8,273.763c0-5.4-4.5-9.7-9.8-9.7c-5.4,0.1-9.7,4.5-9.7,9.9c0,1.8,0.5,3.4,1.3,4.8c1.7,2.9,4.9,4.9,8.5,4.8 C253.6,283.562,257.9,279.163,257.8,273.763z"/><path d="M254.1,304.562c-4.6,2.7-6.2,8.7-3.4,13.3l0,0c2.7,4.6,8.7,6.2,13.4,3.4c4.6-2.7,6.1-8.7,3.4-13.4 C264.7,303.362,258.7,301.763,254.1,304.562z"/><path d="M395.3,272.362c0,1.8,0.5,3.4,1.4,4.9c1.7,2.9,4.9,4.8,8.5,4.8c5.4,0,9.7-4.5,9.7-9.8c0-5.4-4.4-9.7-9.8-9.7 C399.6,262.562,395.2,267.062,395.3,272.362z"/><path d="M253.4,243.062c4.7,2.7,10.7,1,13.3-3.7l0,0c2.6-4.7,1-10.6-3.8-13.3c-4.7-2.6-10.6-1-13.3,3.7c-1.7,3.1-1.6,6.8,0.1,9.8 C250.6,240.962,251.8,242.163,253.4,243.062z"/><path d="M291.5,213.962c0,0,0.1,0,0.1-0.1c0.1,0,0.1,0,0.1-0.1c0,0,0,0,0.1,0c4.6-2.7,6.1-8.7,3.4-13.3c-2.7-4.7-8.7-6.2-13.4-3.5 c0,0-0.1,0-0.1,0.1c-0.1,0-0.1,0.1-0.2,0.1c-4.6,2.7-6.2,8.7-3.4,13.3l0,0C280.9,215.163,286.9,216.663,291.5,213.962z"/><path d="M292.8,332.862c-4.7-2.7-10.7-1-13.3,3.7c-1.8,3.2-1.6,6.9,0.1,9.8c0.8,1.4,2.1,2.7,3.6,3.6c4.7,2.6,10.7,0.9,13.3-3.7 C299.2,341.462,297.5,335.562,292.8,332.862z"/>
    </symbol>
    <symbol id="wall-clock" viewBox="0 0 380 380">
        <title>wall-clock</title>
        <path d="M190,0C85.232,0,0,85.234,0,190c0,104.766,85.232,190,190,190c104.767,0,190-85.232,190-190C380,85.233,294.767,0,190,0z M269.9,316.893l-8.188-14.084c-0.945-1.625-2.703-2.635-4.587-2.635c-0.938,0-1.828,0.242-2.648,0.719 c-1.224,0.711-2.096,1.854-2.458,3.222c-0.358,1.367-0.169,2.793,0.542,4.017l8.199,14.102 c-18.317,9.843-38.906,15.982-60.76,17.43V319.77c0-5.521-4.479-10-10-10c-5.522,0-10,4.479-10,10v19.891 c-21.531-1.424-41.834-7.411-59.949-17.002l8.111-14.149c0.703-1.226,0.887-2.651,0.517-4.018 c-0.37-1.364-1.249-2.502-2.475-3.205c-0.814-0.467-1.697-0.704-2.624-0.704c-1.896,0-3.66,1.021-4.603,2.663l-8.102,14.133 c-18.069-11.266-33.583-26.26-45.447-43.908l17.188-9.923c4.782-2.761,6.421-8.877,3.659-13.66 c-2.761-4.781-8.877-6.421-13.659-3.658l-17.212,9.937c-9.056-18.349-14.466-38.8-15.284-60.41l16.33-0.05 c1.414-0.004,2.741-0.559,3.737-1.561c0.996-1.003,1.543-2.334,1.538-3.748c-0.009-2.91-2.384-5.277-5.293-5.277l-16.348,0.05 c0.699-21.949,6.136-42.72,15.319-61.327l17.212,9.937c1.574,0.909,3.293,1.341,4.989,1.341c3.456,0,6.818-1.793,8.67-5.001 c2.762-4.783,1.123-10.899-3.659-13.66l-17.188-9.923C77.12,89.141,92.36,74.323,110.098,63.114l8.188,14.084 c0.474,0.814,1.124,1.463,1.935,1.929c1.618,0.926,3.669,0.936,5.299-0.013c1.224-0.711,2.097-1.856,2.458-3.223 c0.362-1.366,0.169-2.791-0.541-4.013l-8.198-14.102c18.319-9.843,38.907-15.984,60.76-17.43v19.889c0,5.522,4.478,10,10,10 c5.521,0,10-4.478,10-10V40.346c21.53,1.424,41.832,7.41,59.947,17.001l-8.111,14.149c-1.451,2.532-0.572,5.773,1.959,7.224 c0.813,0.466,1.696,0.703,2.624,0.703c1.897,0,3.66-1.02,4.6-2.661l8.104-14.135c18.071,11.265,33.585,26.261,45.449,43.909 l-17.188,9.923c-4.783,2.761-6.421,8.877-3.659,13.66c1.854,3.208,5.214,5.001,8.67,5.001c1.696,0,3.416-0.432,4.989-1.341 l17.212-9.938c9.058,18.348,14.466,38.8,15.284,60.41l-16.33,0.05c-1.414,0.004-2.741,0.559-3.735,1.561 c-0.996,1.003-1.543,2.333-1.538,3.747c0.006,1.887,1.026,3.642,2.668,4.583c0.794,0.455,1.699,0.693,2.623,0.693h0.017 l16.333-0.05c-0.699,21.949-6.136,42.721-15.319,61.327l-17.212-9.938c-4.784-2.762-10.896-1.122-13.659,3.66 c-2.762,4.782-1.124,10.898,3.659,13.659l17.188,9.923C302.877,290.863,287.639,305.682,269.9,316.893z"/><path d="M263.906,135.775l-64.142,35.588c-2.92-1.533-6.237-2.412-9.767-2.412c-3.528,0-6.846,0.878-9.766,2.412l-64.141-35.588 c-6.064-3.366-13.711-1.176-17.078,4.889c-3.364,6.065-1.176,13.711,4.891,17.077l65.443,36.311 c1.891,9.686,10.412,16.997,20.65,16.997s18.76-7.312,20.65-16.997l65.441-36.311c6.066-3.365,8.254-11.011,4.891-17.077 C277.618,134.598,269.973,132.409,263.906,135.775z"/>
    </symbol>
    <symbol id="calendar-with-a-clock-time-tools" viewBox="0 0 485.213 485.212">
        <title>calendar-with-a-clock-time-tools</title>
        <path d="M60.652,75.816V15.163C60.652,6.781,67.433,0,75.817,0c8.38,0,15.161,6.781,15.161,15.163v60.653 c0,8.38-6.781,15.161-15.161,15.161C67.433,90.978,60.652,84.196,60.652,75.816z M318.424,90.978 c8.378,0,15.163-6.781,15.163-15.161V15.163C333.587,6.781,326.802,0,318.424,0c-8.382,0-15.168,6.781-15.168,15.163v60.653 C303.256,84.196,310.042,90.978,318.424,90.978z M485.212,363.906c0,66.996-54.312,121.307-121.303,121.307 c-66.986,0-121.302-54.311-121.302-121.307c0-66.986,54.315-121.3,121.302-121.3C430.9,242.606,485.212,296.919,485.212,363.906z M454.89,363.906c0-50.161-40.81-90.976-90.98-90.976c-50.166,0-90.976,40.814-90.976,90.976c0,50.171,40.81,90.98,90.976,90.98 C414.08,454.886,454.89,414.077,454.89,363.906z M121.305,181.955H60.652v60.651h60.653V181.955z M60.652,333.584h60.653V272.93 H60.652V333.584z M151.629,242.606h60.654v-60.651h-60.654V242.606z M151.629,333.584h60.654V272.93h-60.654V333.584z M30.328,360.891V151.628h333.582v60.653h30.327V94c0-18.421-14.692-33.349-32.843-33.349h-12.647v15.166 c0,16.701-13.596,30.325-30.322,30.325c-16.731,0-30.326-13.624-30.326-30.325V60.651H106.14v15.166 c0,16.701-13.593,30.325-30.322,30.325c-16.733,0-30.327-13.624-30.327-30.325V60.651H32.859C14.707,60.651,0.001,75.579,0.001,94 v266.892c0,18.36,14.706,33.346,32.858,33.346h179.424v-30.331H32.859C31.485,363.906,30.328,362.487,30.328,360.891z M303.256,242.606v-60.651h-60.648v60.651H303.256z M409.399,363.906h-45.49v-45.49c0-8.377-6.781-15.158-15.163-15.158 s-15.159,6.781-15.159,15.158v60.658c0,8.378,6.777,15.163,15.159,15.163h60.653c8.382,0,15.163-6.785,15.163-15.163 C424.562,370.692,417.781,363.906,409.399,363.906z"/>
    </symbol>
    <symbol id="timetable" viewBox="0 0 512 512">
        <title>timetable</title>
        <path d="m482 292.25v-246.25c0-8.285156-6.714844-15-15-15h-76v-16c0-8.285156-6.714844-15-15-15s-15 6.714844-15 15v16h-60v-16c0-8.285156-6.714844-15-15-15s-15 6.714844-15 15v16h-60v-16c0-8.285156-6.714844-15-15-15s-15 6.714844-15 15v16h-60v-16c0-8.285156-6.714844-15-15-15s-15 6.714844-15 15v16h-76c-8.285156 0-15 6.714844-15 15v391c0 8.285156 6.714844 15 15 15h249.804688c24.25 36.152344 65.488281 60 112.195312 60 74.4375 0 135-60.5625 135-135 0-32.070312-11.25-61.5625-30-84.75zm-391-231.25v15c0 8.285156 6.714844 15 15 15s15-6.714844 15-15v-15h60v15c0 8.285156 6.714844 15 15 15s15-6.714844 15-15v-15h60v15c0 8.285156 6.714844 15 15 15s15-6.714844 15-15v-15h60v15c0 8.285156 6.714844 15 15 15s15-6.714844 15-15v-15h61v60h-422v-60zm-61 361v-271h422v113.804688c-21.464844-14.394532-47.269531-22.804688-75-22.804688-47.398438 0-89.164062 24.558594-113.257812 61.613281-2.027344-1.023437-4.3125-1.613281-6.742188-1.613281h-30c-8.285156 0-15 6.714844-15 15s6.714844 15 15 15h22.722656c-3.386718 9.554688-5.730468 19.601562-6.882812 30h-15.839844c-8.285156 0-15 6.714844-15 15s6.714844 15 15 15h15.839844c1.152344 10.398438 3.492187 20.445312 6.882812 30zm347 60c-57.898438 0-105-47.101562-105-105s47.101562-105 105-105 105 47.101562 105 105-47.101562 105-105 105zm0 0"/><path d="m437 362h-45v-45c0-8.285156-6.714844-15-15-15s-15 6.714844-15 15v60c0 8.285156 6.714844 15 15 15h60c8.285156 0 15-6.714844 15-15s-6.714844-15-15-15zm0 0"/><path d="m136 182h-30c-8.285156 0-15 6.714844-15 15s6.714844 15 15 15h30c8.285156 0 15-6.714844 15-15s-6.714844-15-15-15zm0 0"/><path d="m136 242h-30c-8.285156 0-15 6.714844-15 15s6.714844 15 15 15h30c8.285156 0 15-6.714844 15-15s-6.714844-15-15-15zm0 0"/><path d="m136 302h-30c-8.285156 0-15 6.714844-15 15s6.714844 15 15 15h30c8.285156 0 15-6.714844 15-15s-6.714844-15-15-15zm0 0"/><path d="m227 212h30c8.285156 0 15-6.714844 15-15s-6.714844-15-15-15h-30c-8.285156 0-15 6.714844-15 15s6.714844 15 15 15zm0 0"/><path d="m227 272h30c8.285156 0 15-6.714844 15-15s-6.714844-15-15-15h-30c-8.285156 0-15 6.714844-15 15s6.714844 15 15 15zm0 0"/><path d="m136 362h-30c-8.285156 0-15 6.714844-15 15s6.714844 15 15 15h30c8.285156 0 15-6.714844 15-15s-6.714844-15-15-15zm0 0"/><path d="m347 212h30c8.285156 0 15-6.714844 15-15s-6.714844-15-15-15h-30c-8.285156 0-15 6.714844-15 15s6.714844 15 15 15zm0 0"/>
    </symbol>
    <symbol id="magnifier" viewBox="0 0 485.213 485.213">
        <title>magnifier</title>
        <path d="M471.882,407.567L360.567,296.243c-16.586,25.795-38.536,47.734-64.331,64.321l111.324,111.324 c17.772,17.768,46.587,17.768,64.321,0C489.654,454.149,489.654,425.334,471.882,407.567z"/><path d="M363.909,181.955C363.909,81.473,282.44,0,181.956,0C81.474,0,0.001,81.473,0.001,181.955s81.473,181.951,181.955,181.951 C282.44,363.906,363.909,282.437,363.909,181.955z M181.956,318.416c-75.252,0-136.465-61.208-136.465-136.46 c0-75.252,61.213-136.465,136.465-136.465c75.25,0,136.468,61.213,136.468,136.465 C318.424,257.208,257.206,318.416,181.956,318.416z"/><path d="M75.817,181.955h30.322c0-41.803,34.014-75.814,75.816-75.814V75.816C123.438,75.816,75.817,123.437,75.817,181.955z"/>
    </symbol>
    <symbol id="arrow-right" viewBox="0 0 451.846 451.847">
        <title>arrow-right</title>
        <path d="M345.441,248.292L151.154,442.573c-12.359,12.365-32.397,12.365-44.75,0c-12.354-12.354-12.354-32.391,0-44.744 L278.318,225.92L106.409,54.017c-12.354-12.359-12.354-32.394,0-44.748c12.354-12.359,32.391-12.359,44.75,0l194.287,194.284 c6.177,6.18,9.262,14.271,9.262,22.366C354.708,234.018,351.617,242.115,345.441,248.292z"/>
    </symbol>
    <symbol id="checked" viewBox="0 0 426.667 426.667">
        <title>checked</title>
        <path style="fill:#6AC259;" d="M213.333,0C95.518,0,0,95.514,0,213.333s95.518,213.333,213.333,213.333 c117.828,0,213.333-95.514,213.333-213.333S331.157,0,213.333,0z M174.199,322.918l-93.935-93.931l31.309-31.309l62.626,62.622 l140.894-140.898l31.309,31.309L174.199,322.918z"/>
    </symbol>
    <symbol id="exclamation-mark" viewBox="0 0 286.054 286.054">
        <title>exclamation-mark</title>
        <path style="fill:#E2574C;" d="M143.027,0C64.04,0,0,64.04,0,143.027c0,78.996,64.04,143.027,143.027,143.027 c78.996,0,143.027-64.022,143.027-143.027C286.054,64.04,222.022,0,143.027,0z M143.027,259.236 c-64.183,0-116.209-52.026-116.209-116.209S78.844,26.818,143.027,26.818s116.209,52.026,116.209,116.209 S207.21,259.236,143.027,259.236z M143.036,62.726c-10.244,0-17.995,5.346-17.995,13.981v79.201c0,8.644,7.75,13.972,17.995,13.972 c9.994,0,17.995-5.551,17.995-13.972V76.707C161.03,68.277,153.03,62.726,143.036,62.726z M143.036,187.723 c-9.842,0-17.852,8.01-17.852,17.86c0,9.833,8.01,17.843,17.852,17.843s17.843-8.01,17.843-17.843 C160.878,195.732,152.878,187.723,143.036,187.723z"/>
    </symbol>
    <symbol id="information" viewBox="0 0 437.6 437.6">
        <title>information</title>
        <path d="M194,142.8c0.8,1.6,1.6,3.2,2.4,4.4c0.8,1.2,2,2.4,2.8,3.6c1.2,1.2,2.4,2.4,4,3.6c1.2,0.8,2.8,2,4.8,2.4 c1.6,0.8,3.2,1.2,5.2,1.6c2,0.4,3.6,0.4,5.2,0.4c1.6,0,3.6,0,5.2-0.4c1.6-0.4,3.2-0.8,4.4-1.6h0.4c1.6-0.8,3.2-1.6,4.8-2.8 c1.2-0.8,2.4-2,3.6-3.2l0.4-0.4c1.2-1.2,2-2.4,2.8-3.6s1.6-2.4,2-4c0-0.4,0-0.4,0.4-0.8c0.8-1.6,1.2-3.6,1.6-5.2 c0.4-1.6,0.4-3.6,0.4-5.2s0-3.6-0.4-5.2c-0.4-1.6-0.8-3.2-1.6-5.2c-1.2-2.8-2.8-5.2-4.8-7.2c-0.4-0.4-0.4-0.4-0.8-0.8 c-1.2-1.2-2.4-2-4-3.2c-1.6-0.8-2.8-1.6-4.4-2.4c-1.6-0.8-3.2-1.2-4.8-1.6c-2-0.4-3.6-0.4-5.2-0.4c-1.6,0-3.6,0-5.2,0.4 c-1.6,0.4-3.2,0.8-4.8,1.6H208c-1.6,0.8-3.2,1.6-4.4,2.4c-1.6,1.2-2.8,2-4,3.2c-1.2,1.2-2.4,2.4-3.2,3.6 c-0.8,1.2-1.6,2.8-2.4,4.4c-0.8,1.6-1.2,3.2-1.6,4.8c-0.4,2-0.4,3.6-0.4,5.2c0,1.6,0,3.6,0.4,5.2 C192.8,139.6,193.6,141.2,194,142.8z"/><path d="M249.6,289.2h-9.2v-98c0-5.6-4.4-10.4-10.4-10.4h-42c-5.6,0-10.4,4.4-10.4,10.4v21.6c0,5.6,4.4,10.4,10.4,10.4h8.4v66.4 H188c-5.6,0-10.4,4.4-10.4,10.4v21.6c0,5.6,4.4,10.4,10.4,10.4h61.6c5.6,0,10.4-4.4,10.4-10.4V300 C260,294,255.2,289.2,249.6,289.2z"/><path d="M218.8,0C98,0,0,98,0,218.8s98,218.8,218.8,218.8s218.8-98,218.8-218.8S339.6,0,218.8,0z M218.8,408.8 c-104.8,0-190-85.2-190-190s85.2-190,190-190s190,85.2,190,190S323.6,408.8,218.8,408.8z"/>
    </symbol>
    <symbol id="delete" viewBox="0 0 443 443">
        <title>delete</title>
        <rect x="61.785" y="128" width="60" height="290"/>
        <path d="M211.785,250.65V128h-60v290h44.172c-14.861-21.067-23.602-46.746-23.602-74.43 C172.356,307.145,187.486,274.193,211.785,250.65z"/><path d="M301.785,214.141l0-86.141h-60v100.918C259.731,219.488,280.144,214.141,301.785,214.141z"/><path d="M321.785,38h-83.384V0H125.169v38H41.785v60h280V38z M155.169,30h53.232v8h-53.232V30z"/><path d="M301.785,244.141c-54.826,0-99.429,44.604-99.429,99.429S246.959,443,301.785,443s99.43-44.604,99.43-99.43 S356.611,244.141,301.785,244.141z M355.961,376.533l-21.213,21.213l-32.963-32.963l-32.963,32.963l-21.213-21.213l32.963-32.963 l-32.963-32.963l21.213-21.213l32.963,32.963l32.963-32.963l21.213,21.213l-32.963,32.963L355.961,376.533z"/>
    </symbol>
</svg>